<svg xmlns="http://www.w3.org/2000/svg">
  <sympol viewBox="0 0 339 165" xmlns="http://www.w3.org/2000/svg" fill="none" id="icon-logo-pochta">
    <g clip-path="url(#clip0_3031_12886)">
      <path fill="#0837B8" d="M0 164.962h164.043V0H0v164.962zM333.738.038h-159.14V165h164.043V.038h-4.903z"/>
      <path fill="#fff" d="M184.4 155.103h144.352V9.943H184.4v145.16zM14.984 90.41v34.397h5.649v-9.979c1.098.946 2.314 1.538 3.609 1.538 1.883 0 3.412-.986 4.59-2.958 1.333-2.209 2.039-5.444 2.039-9.665 0-2.958-.55-5.6-1.608-7.889l-.197-.355-.196-.315-.117-.316-.196-.237-.197-.315-.235-.316-.196-.236-.196-.237-.236-.237-.196-.237-.235-.236-.235-.197-.236-.237-.235-.197-.235-.197-.236-.198-.314-.118-.235-.197-.235-.119-.314-.118-.314-.118-.314-.118-.314-.119-.313-.079-.314-.079-.314-.079-.353-.118h-.314l-.353-.079h-.314l-.353-.079h-6.237v.04zm5.335 4.852h.55c1.411 0 2.51.829 3.294 2.407.785 1.578 1.177 4.023 1.177 7.416 0 1.814-.235 3.273-.745 4.26-.471.986-1.138 1.459-1.844 1.459-.667 0-1.255-.473-1.726-1.341-.47-.868-.745-2.091-.745-3.747V95.262h.04zM147.648 88.75l-.471.474s-11.807 12.385-12.67 13.332v-12.11h-5.53v34.476h5.53v-14.161c.157-.158 7.218-7.732 8.042-8.56.039 1.262.823 22.721.823 22.721h5.649l-1.373-36.172zM120.775 89.227l-.039.04-.039.039-.039.078-.079.08-.117.078-.118.08-.118.118-.117.118-.157.158-.157.157-.157.158-.157.158-.157.197-.196.197-.235.237-.432.473-.471.513-.51.513-.51.552-.549.553-.549.552-.549.591-.549.632-1.138 1.223-.549.591-.549.552-.549.553-.51.552-.51.513-.471.473-.51.552-.235.237-.196.236-.196.198-.157.197-.157.158-.157.157-.157.158-.157.158-.118.119-.117.118-.118.079-.078.118-.079.039-.039.079v-12.11h-5.531v34.476h5.531v-14.161c.157-.158 7.218-7.731 8.041-8.56.04 1.263.824 22.721.824 22.721h5.609l-1.333-36.132-.393.434zM88.69 116.286l-.352-.434-.314-.434-.314-.473-.235-.474-.235-.513-.236-.512-.235-.513-.157-.513-.157-.552-.157-.553-.118-.591-.078-.592-.078-.631-.04-.631-.039-.631-.04-.632c0-3.629.864-6.508 2.59-8.638 1.883-2.328 4.629-3.471 8.198-3.471h.275v-6.035h-.275c-5.61 0-9.885 1.735-12.788 5.206-2.667 3.117-4 7.495-4 12.978 0 5.286 1.49 9.625 4.353 12.938 3.06 3.432 7.218 5.207 12.514 5.207h.274v-6.035h-.275c-3.373.079-6.119-1.105-8.08-3.471zM44.364 89.543c-2.981 0-5.335 1.696-7.06 5.01-1.687 3.273-2.511 7.573-2.511 12.898 0 5.483.785 9.901 2.393 13.136 1.608 3.313 4.04 5.009 7.178 5.009 3.217 0 5.766-1.775 7.532-5.246 1.686-3.235 2.51-7.613 2.51-12.938 0-5.286-.863-9.586-2.589-12.82l-.196-.316-.196-.315-.118-.316-.235-.237-.118-.236-.235-.237-.196-.237-.197-.236-.196-.237-.235-.237-.196-.197-.235-.197-.197-.197-.235-.198-.196-.197-.236-.197-.235-.118-.235-.119-.236-.118-.235-.118-.235-.119-.236-.118-.235-.079-.314-.118-.235-.08-.314-.078-.235-.079h-.236l-.313-.079-.314-.079h-.628v.04zm0 5.561c1.57 0 2.707 1.105 3.413 3.393.667 2.051.98 5.049.98 8.875 0 3.708-.353 6.824-1.098 9.191l-.118.237-.078.197-.078.197-.079.197-.078.198-.118.197-.078.197-.118.118-.079.198-.117.118-.079.197-.078.118-.118.119-.118.118-.078.119-.118.079-.078.118-.118.118-.117.079-.118.118-.118.079-.118.079-.078.079-.118.079h-.117l-.118.079-.118.079h-.117l-.118.079h-.432c-1.333 0-2.353-1.144-3.138-3.432-.784-2.407-1.176-5.444-1.176-9.073 0-3.668.392-6.705 1.176-8.993.824-2.406 1.883-3.55 3.256-3.55zM67.427 116.286l-.157-.198-.157-.236-.314-.434-.274-.473-.275-.474-.235-.513-.235-.512-.197-.513-.196-.513-.157-.552-.157-.553-.117-.591-.118-.592-.078-.631-.04-.631-.039-.631v-.632c0-3.629.863-6.508 2.59-8.638 1.882-2.328 4.628-3.471 8.197-3.471h.275v-6.035h-.275c-5.57 0-9.885 1.735-12.787 5.206-2.668 3.117-4.001 7.495-4.001 12.978 0 5.286 1.451 9.625 4.354 12.938 3.02 3.432 7.217 5.207 12.513 5.207h.275v-6.035h-.275c-3.413.079-6.159-1.105-8.12-3.471zM15.063 39.841v34.634h6.354V45.6h7.845v28.875h6.316V39.84H15.062zM55.037 38.932c-3.373 0-6.04 1.697-7.963 5.05-1.883 3.273-2.824 7.613-2.824 12.938 0 5.483.902 9.98 2.707 13.253 1.843 3.314 4.55 5.01 8.08 5.01 3.609 0 6.433-1.736 8.473-5.246 1.883-3.235 2.864-7.653 2.864-13.017 0-5.325-1.02-9.704-2.942-12.939l-.197-.315-.196-.316-.196-.315-.235-.237-.196-.315-.236-.237-.196-.237-.235-.236-.236-.237-.196-.197-.235-.237-.235-.197-.236-.197-.235-.197-.314-.198-.235-.118-.236-.197-.235-.119-.314-.118-.235-.119-.314-.118-.314-.118-.235-.08-.314-.117-.314-.08-.313-.078-.314-.079-.314-.079h-.667l-.314-.079h-.353v.118zm.04 5.878c1.725 0 2.941 1.104 3.726 3.313.745 2.012 1.098 4.97 1.098 8.797 0 3.668-.431 6.745-1.294 9.072-.824 2.288-2 3.314-3.57 3.314H54.488l-.118-.08-.117-.078h-.118l-.118-.079-.117-.079-.118-.079-.118-.079-.117-.079-.118-.118-.118-.079-.117-.118-.118-.079-.079-.118-.117-.119-.118-.118-.078-.118-.118-.119-.118-.197-.078-.118-.118-.118-.078-.198-.118-.197-.078-.118-.079-.237-.118-.197-.078-.198-.079-.197-.117-.197c-.863-2.406-1.295-5.404-1.295-8.994 0-3.668.432-6.666 1.295-8.954.902-1.972 2.04-3.037 3.57-3.037zM100.889 39.841v5.76h5.256v28.874h6.355V45.6h5.334v-5.759h-16.945zM87.004 51.91h-3.452c-1.412 0-2.51-.315-3.177-.946-.47-.434-.706-1.065-.706-1.854v-9.23h-6.355v9.9c0 2.249.903 4.221 2.668 5.76 1.726 1.498 3.883 2.287 6.394 2.287h4.628v16.725h6.355V39.92h-6.355V51.91zM126.11 39.88l-1.176 34.633h6.315s.588-16.173.628-16.962h7.923c.079.71 1.844 16.962 1.844 16.962h6.394l-2.942-25.325v-.946l-.079-.316v-.315l-.078-.237v-.316l-.078-.236-.079-.316-.078-.236-.079-.237-.078-.237-.079-.236-.117-.237-.079-.237-.078-.236-.118-.237-.118-.197-.117-.237-.079-.197-.118-.237-.117-.197-.196-.197-.118-.237-.118-.118-.196-.237-.117-.118-.197-.197-.196-.198-.196-.118-.118-.197-.235-.197c-1.608-1.263-3.766-1.855-6.511-1.855h-9.219zm6.08 5.72h2.276c1.647 0 2.745.512 3.412 1.538.549.828.942 2.445 1.177 4.694h-7.061V50.688l.079-.198V48.084l.078-.237v-1.775l.079-.118V45.48v.118h-.04z"/>
      <path fill="#0837B8" d="M224.296 53.332l.235.513.275.512.274.513.314.553.157.236.157.276.157.276.196.277.235.276.236.276.235.276.235.276.275.316.275.276.274.276.275.315.313.276.314.316.353.316.353.315.353.316.393.315.392.316.431.355.471.316.432.355.47.315.51.355c1.216.828 2.589 2.603 1.53 5.01-1.02 2.445-2.942 5.916-1.804 7.258 1.137 1.34 5.217 2.05 8.551.71 0 0 .706 2.13 1.922 3.47 0 0-.588 1.145-2.51.553 0 0 .706 1.736-.275 3.63 0 0-2.236-.395-3.217-2.447 0 0-.902 1.618-2.667 2.21 0 0-1.491-.75-1.137-3.708 0 0-1.099 2.643-4.433 3.076 0 0-1.922-2.445.588-5.72 0 0-1.804 1.618-5.06.829 0 0-.549-1.696 2.432-3.984 0 0-3.334-.158-4.589-2.958 0 0 1.412-1.736 4.864-1.341 0 0-3.217-.71-3.923-4.576 0 0 2.315-1.46 6.002.907 0 0-.628-1.223-2.197-2.446-1.49-1.301-3.334-4.733-2.667-9.782zM237.671 92.184l-.118-.118-.078-.119-.118-.118-.079-.118-.078-.119-.039-.157-.079-.119-.078-.118-.079-.119-.078-.118-.039-.118-.079-.118-.039-.119-.078-.118-.04-.119-.039-.118c.589 4.694.785 7.85 3.295 10.887 0 0 1.53-2.012.549-6.942a5.003 5.003 0 01-1.333-.632s.588 2.012.235 4.024c-.039-.04-.941-.71-1.608-5.404zM233.316 91.672l-.04-.079-.039-.04-.039-.039-.039-.04-.039-.039-.04-.04-.039-.039-.039-.04-.039-.078-.079-.118-.078-.119-.079-.118-.078-.118-.079-.119-.117-.118-.079-.118-.078-.08-.079-.117-.039-.08-.039-.039-.039-.04-.04-.039c-.235 2.722-.941 9.862 1.452 12.11 0 0 1.608-1.223 2.196-11.636-.353.591-.941 1.223-1.255 1.538 0 0 .393 3.314-.784 5.64.078-.078-1.099-.985-.353-5.995zM227.628 97.154l.157-.236.157-.276.157-.316.156-.316.157-.315.196-.316.118-.355.157-.355.118-.394.117-.395.118-.394.079-.434.196-.828.078-.395.118-.394.078-.395.039-.355.079-.355.039-.355.039-.355.04-.315.039-.316.039-.276.039-.276.039-.237.04-.118v-.079l.039-.118v-.158l.039-.04v-.197c.275-.157.549-.394.824-.63.118-.12.235-.159.353-.316 0 .276 0 .552.039.828-.314 4.339-.627 8.836-2 11.084-1.334 2.209-3.766 3.314-3.766 3.314-2.275-4.103.471-9.546 2.785-13.373.275-.118.588-.236.863-.355-.863 2.959-2.393 6.43-1.765 9.112zM221.979 84.613v.395l.039.078v.158l.039.04v.158l.039.039v.118l.04.04v.118l.039.04V85.913l.039.04c.039.04.039.158.078.316-1.922 1.854-3.334 3.668-6.158 7.612-2.863 3.984-7.335 4.103-7.335 4.103.431-3.195 1.294-5.76 3.687-8.441 2.393-2.722 5.452-5.247 7.728-6.864.588.276 1.333.434 2.314.315.039 0 .157-.039.235-.039-.314.394-.51.789-.588 1.144-1.726.986-6.669 3.51-8.669 7.574-.079-.277 3.06-1.263 8.473-7.061zM218.411 80.627l.196-.355c.039-.118.118-.197.196-.315-1.883.71-8.434 3.195-10.552 4.3-2.118 1.104-5.217 3.628-6.864 8.756 0 0 4.432.395 8.12-2.682 3.648-3.038 7.923-7.297 9.728-8.639a4.755 4.755 0 01-.432-.473s-4.942 4.418-10.199 6.311c0 0 1.138-2.011 3.178-3.51 2.549-1.775 4.432-2.367 6.629-3.393zM214.683 77.59l.039-.04.039-.079.04-.079.039-.04.039-.078.039-.08.04-.039v-.039l.039-.04.039-.039c-2.197.473-7.61 1.105-10.042 1.854-2.432.75-6.786 2.524-9.375 7.534 0 0 3.805 1.184 11.023-2.209 7.217-3.392 9.453-4.102 10.826-4.496-1.098-.08-1.883-.435-2.275-.671-2.864 1.301-6.708 2.8-10.513 2.919 0 0 1.883-1.341 3.845-2.17 2-.907 4.354-1.735 6.158-2.209zM214.841 73.999l.118.079.117.04.118.039.157.079.118.04.117.038.118.04.118.04.117.039.157.04.118.039.157.039.078.04h.079l.078.039h.157l.118.04h.078l.079.039c-.51.316-.942.75-1.413 1.302-2.549.75-6.864 1.538-14.003 2.05-7.139.553-10.944-.788-10.944-.788 2.471-1.539 6.433-3.077 9.1-3.59 2.707-.513 9.728-.434 12.788-.907.039.04.431.355 1.059.71-2.628.237-8.12.473-11.023 1.933.04-.118 5.296.592 12.239-1.42zM214.29 69.898l.079-.039.078-.04.079-.039.078-.04.079-.039.078-.04.078-.039.118-.04.079-.039.078-.04.118-.039.078-.039.079-.04.078-.039.118-.04.117-.039c-3.608-1.065-8.551-2.88-16.004-3.352-5.452-.356-9.453-.04-11.493.473 0 0 4.982 3.51 10.709 4.773 5.687 1.222 10.316.433 13.69.473.235-.355.47-.67.863-1.065-3.962.04-10.552-.986-12.906-1.775-.078 0 5.688-1.223 13.729 1.104zM214.291 65.6v.039l.039.04v.039l.04.04v.078l.039.08.039.078.039.118.039.08.04.118.039.078.039.119.039.118.079.118.078.119.079.118.117.118.079.158.117.119.118.118.118.158.039.118.118.158.157.118.157.118.156.119.157.157.196.119.157.118.236.119.235.079c-5.06-2.21-15.063-3.511-20.437-5.76-7.256-2.997-8.59-6.824-8.59-6.824 6.276-.157 11.336 1.38 15.259 2.604 4.589 1.42 11.571 4.023 14.003 5.128-.902.04-1.922.276-2.745.867-3.413-1.301-5.021-1.893-8.12-2.76-2.432-.71-4.237-.829-5.766-.947 0 0 2.157 1.42 5.687 2.563 3.531 1.144 5.061 1.342 7.924 1.855zM213.897 60.039l.039.079.04.04.039.039.039.04.039.038.04.04.039.04.039.039.039.04.04.078.039.04.078.118.079.118.078.119.079.118.039.079.039.04.039.039.039.04.04.039.039.04.039.039.039.04.04.039.039.04.039.038.039.04c-8.002-1.341-16.828-7.455-19.574-11.242-2.706-3.787-1.922-9.428-1.922-9.428 2.668.552 8.395 5.523 9.846 7.022 1.491 1.499 6.002 5.877 9.101 8.362l.941 2.8a351.355 351.355 0 00-7.806-6.034c-1.53-1.144-3.805-2.762-6.041-3.55 0 0 2.04 2.721 3.766 4.062 1.922 1.539 3.883 2.88 5.531 3.787 1.294.868 2.04 1.341 4.942 2.722z"/>
      <path fill="#0837B8" d="M236.494 82.638l.039-.04.04-.04.039-.039.039-.04.039-.039.039-.04.04-.039.039-.04.039-.039.039-.04.04-.039.039-.039.039-.04.039-.039.039-.04.04-.039c.353.513 1.608 2.052 2.196 3.59.471 1.302.942 3.116 1.216 4.102.236 1.065.942 3.195 1.413 3.905 0 0-1.962.276-3.413-1.46-1.412-1.656-1.883-3.313-2.118-5.048-.157-1.341-.079-3.195.078-4.457zM233.433 82.876l.039.04.04.039.039.04.039.039.039.039.039.04.04.039.039.04.039.039.039.04.04.039.039.04.039.039.039.039h.039l.04.04.039.039.039.04.039.039h.04v.04h.039l.039.039h.039v-.119h.079v.04l.274.118.275-.079c.235-.079.471-.197.667-.276.274.75.392 1.144.47 1.854.079.907.275 2.288-.078 3.471-.432 1.42-1.255 2.249-1.726 2.801 0 0-1.294-1.42-1.647-2.604-.393-1.222-.51-2.642-.04-4.102.04-.75.471-1.46.824-1.893zM229.039 82.994l.118-.04h.118l.078-.039.118-.04.235-.039.236-.04.235-.078.235-.04.197-.078.196-.08.157-.117.157-.08.196-.078.157-.08.156-.118.157-.118.157-.079.157-.118c.157.434.432 1.105.236 1.933-.236.907-.824 1.893-1.687 2.603-1.334 1.065-3.06 2.051-5.021 1.736-.039.079-.471-1.38 3.412-5.01z"/>
      <path fill="#0837B8" d="M227.548 80.548l.039.118v.119l.039.118.039.118v.198l.039.118.04.118.039.08.039.078.039.08.04.117.039.08.039.078.039.079.04.079.039.079.039.079.039.04.039.039.04.078.039.04.039.04.039.039.04.04.039.039.039.04.039.038.039.04v.04h.04v.039c-.471.552-2.119 3.392-5.531 2.919 0 0-.942-1.933 1.334-3.471 1.333-1.144 2.078-1.342 3.138-1.736zM227.86 78.103l-.196.079-.157.04-.196.039-.196.04-.196.039-.196.04h-.236l-.235.039h-.196l-.236-.04h-.235l-.118-.04h-.117l-.157-.039h-.118l-.118-.04-.117-.038-.118-.04-.157-.04-.118-.039-.156-.04-.393-.078-.117-.395c-1.726 1.46-3.844 1.696-4.551 2.998 0 0 .863 1.618 3.178 1.341 2.275-.276 4.001-1.341 5.217-2.88 0-.197.117-.63.235-.946zM223.902 76.09l.039-.119.078-.079.04-.118.078-.118.079-.119.039-.118.078-.118.039-.119.079-.118.078-.158.04-.079.039-.04.039-.078.039-.08.04-.078.039-.04.039-.078.039-.08.079-.078.039-.079.078-.079.04-.04c-1.53-.275-2.864-.315-4.629.04-2.118.395-4.276.868-5.335 4.103 0 0 1.334 1.183 3.805.67 2.118-.394 3.923-1.302 4.982-2.8zM222.999 72.582l-.078-.079-.118-.079-.078-.118-.118-.118-.079-.118-.117-.119-.118-.118-.078-.08-.118-.118-.079-.118-.117-.118-.079-.118-.078-.158-.079-.119-.078-.157-.078-.158-.157-.395c-1.805-.75-3.727-1.144-5.61-.433-1.843.71-2.353 1.538-2.824 2.209 0 0 2.04 1.735 4.433 1.814 2.51.118 4.707-.592 5.648-1.302zM223.549 68.831l.04-.039.078-.04h.157l.039-.039.079-.04.039-.039.078-.04h.079l.078-.039.079-.04h.039l.078-.039.079-.04h.039l.079-.039c-.785-.71-1.609-1.814-2.001-3.47-.824.197-2.824.197-3.687-.12-.863-.354-2.589-.354-3.962.553 0 0 .431 2.328 3.491 3.156 2.903.907 3.923.71 5.099.315zM222.452 64.216l.392-.276c.039-.04.745-.434 1.922-.513-.981-.75-3.334-2.722-4.982-3.629-1.804-1.026-4.785-2.406-6.315-2.603 0 0 1.451 3.786 3.099 5.285 1.726 1.578 2.942 2.17 5.884 1.736zM225.511 62.44l-.118-.158-.118-.197-.157-.197-.117-.197-.079-.237-.117-.237-.118-.236-.079-.237-.117-.237-.118-.237-.118-.236-.078-.276-.118-.276-.117-.276-.079-.316-.078-.276c-.353-1.263-1.138-4.379-1.609-5.247-.47-.828-2.157-3.628-5.452-4.496 0 0-.863 3.668.784 6.627 1.491 2.564 4.394 5.246 8.003 6.942zM243.79 79.683l.118.078.078.08.079.078.078.04.079.079.078.04.079.078.078.04.078.039.118.079.039.04.04.039.039.04.039.038.039.04.04.04.078.039.039.04.039.039.079.04.078.039.04.04s1.059 2.01-.236 4.457a77.444 77.444 0 00-2.863 6.31s-.706-.118-1.452-3.904c-.51-2.564-1.137-3.235-1.843-4.103.745.355 1.333.474 1.412.474l.471.118.235-.513a5.316 5.316 0 00.549-2.406c0-.237 0-.473-.039-.67 1.177.039 1.804-.553 2.04-.868.039-.04.039-.04.039-.08l.235.08z"/>
      <path fill="#0837B8" d="M215.861 50.49v1.183l.04.868c-1.962-2.485-4.276-5.483-6.512-8.284-1.53-1.893-2.785-3.037-4.236-3.983 1.216 3.51 3.373 6.35 4.903 7.73 1.53 1.42 3.726 3.788 5.884 5.247l.196.71c.157.67.431 1.341.745 1.972a16.723 16.723 0 001.962 2.604c-.628-.316-1.334-.671-2.04-.947l-.706-.316c-5.923-3.116-11.807-9.703-14.161-14.24-2.393-4.575-1.412-9.821-.784-12.661 2.706 2.287 6.59 6.823 8.276 9.23 2.079 2.998 4.747 7.297 6.355 10.768v.119h.078zM298.865 69.898l-.078-.04-.039-.04-.079-.039-.078-.04-.079-.039-.117-.04-.079-.039-.039-.078-.079-.04-.078-.04-.078-.039-.118-.04-.118-.038-.118-.04-.117-.04-.118-.039c3.648-1.065 8.591-2.88 16.044-3.353 5.452-.355 9.375-.04 11.454.474 0 0-5.021 3.51-10.709 4.772-5.688 1.223-10.317.434-13.69.474a6.43 6.43 0 00-.863-1.065c3.962.04 10.513-.986 12.905-1.775.118.04-5.609-1.184-13.729 1.144zM298.902 65.6v.039l-.04.04v.039l-.039.04-.039.078v.08l-.039.078-.04.118-.039.08-.039.118-.039.078-.039.119-.079.118-.039.118-.079.119-.078.118-.118.118-.078.158-.118.119-.078.118-.118.158-.078.118-.157.158-.157.118-.157.118-.157.119-.196.157-.157.119-.196.118-.196.119-.236.079c5.06-2.21 15.063-3.511 20.437-5.76 7.218-2.997 8.551-6.824 8.551-6.824-6.276-.157-11.375 1.38-15.259 2.604-4.589 1.42-11.532 4.023-14.003 5.128.941.04 1.922.276 2.785.867 3.412-1.301 5.021-1.893 8.08-2.76 2.432-.71 4.237-.829 5.767-.947 0 0-2.119 1.42-5.649 2.563-3.53 1.144-5.021 1.342-7.884 1.855zM299.292 60.034l-.039.079-.039.04-.04.039-.039.04-.039.038-.039.04-.04.04-.039.039-.039.04-.078.118-.079.118-.118.118-.078.119-.079.118-.039.079-.039.04-.039.039-.039.04-.04.039-.039.04-.039.039-.039.04-.04.039-.039.04.157.117-.039.04c8.002-1.341 16.828-7.455 19.574-11.242 2.745-3.787 1.961-9.428 1.961-9.428-2.667.553-8.394 5.523-9.885 7.022-1.451 1.498-5.962 5.877-9.1 8.362l-.942 2.8c2.668-2.13 5.806-4.535 7.767-6.034 1.53-1.144 3.766-2.762 6.041-3.55 0 0-2.079 2.721-3.766 4.062-1.922 1.539-3.923 2.88-5.531 3.787-1.412.789-2.157 1.262-5.06 2.643zM297.372 50.488v1.184l-.079.907c1.923-2.485 4.276-5.483 6.473-8.284 1.53-1.893 2.824-3.037 4.236-3.984-1.216 3.511-3.373 6.351-4.864 7.732-1.53 1.42-3.726 3.787-5.884 5.246l-.196.71c-.196.67-.431 1.341-.784 1.972-.51.908-1.177 1.736-1.922 2.604.627-.316 1.333-.67 2.039-.947l.667-.316c5.923-3.116 11.807-9.703 14.161-14.24 2.432-4.575 1.412-9.821.784-12.661-2.706 2.288-6.59 6.824-8.237 9.23-2.079 2.998-4.747 7.297-6.355 10.768v.08h-.039zM223.43 86.427l-.235.236-.236.237-.274.276-.314.316-.275.315-.313.316-.275.355-.314.355-.314.355-.313.355-.275.394-.314.395-.274.434-.314.434-.275.433-.314.434-.274.474-.275.473-.274.474-.236.512-.235.474-.196.512-.196.474-.196.552-.157.513-.157.512-.118.553-.078.552-.04.552-.039.552-.039.553.039.552s4.747-1.499 6.747-5.05c1.961-3.51 3.177-5.758 4.001-6.547a5.228 5.228 0 01-1.569 0l-.431-.079c-1.216 2.209-3.609 5.877-5.767 7.14 0 0-.549-2.959 5.806-8.915.118-.237.235-.513.392-.828-.588.236-1.216.315-2 .315M288.938 53.332l-.235.513-.275.512-.275.513-.313.553-.157.236-.196.276-.197.276-.196.277-.196.276-.235.276-.236.276-.235.276-.235.316-.275.276-.274.276-.314.315-.314.276-.314.316-.353.316-.353.315-.353.316-.392.315-.392.316-.432.355-.431.316-.471.355-.471.315-.51.355c-1.216.828-2.589 2.603-1.53 5.01 1.02 2.445 2.942 5.916 1.805 7.258-1.138 1.34-5.256 2.05-8.591.71 0 0-.706 2.13-1.922 3.47 0 0 .589 1.145 2.511.553 0 0-.706 1.736.274 3.63 0 0 2.236-.395 3.178-2.447 0 0 .902 1.618 2.667 2.21 0 0 1.491-.75 1.138-3.708 0 0 1.098 2.643 4.432 3.076 0 0 1.922-2.445-.588-5.72 0 0 1.804 1.618 5.06.829 0 0 .51-1.696-2.432-3.984 0 0 3.334-.158 4.589-2.958 0 0-1.412-1.736-4.864-1.341 0 0 3.217-.71 3.923-4.576 0 0-2.314-1.46-5.962.907 0 0 .627-1.223 2.196-2.446 1.491-1.301 3.374-4.733 2.746-9.782zM275.523 92.183l.118-.119.078-.118.079-.118.117-.119.079-.118.078-.118.079-.119.078-.118.078-.118.04-.119.078-.118.039-.118.079-.119.039-.118.039-.118.039-.119c-.549 4.695-.745 7.85-3.294 10.887 0 0-1.53-2.011-.55-6.942a4.505 4.505 0 001.334-.631s-.549 2.012-.235 4.023c.039-.079.941-.75 1.608-5.443zM279.877 91.672l.039-.04.039-.039.04-.04.039-.039.039-.04.039-.039.039-.04.04-.039.039-.04.039-.078.118-.118.078-.119.079-.118.117-.118.079-.119.078-.118.079-.118.078-.08.079-.117.039-.08.039-.039.039-.04.04-.039c.235 2.722.941 9.862-1.452 12.11 0 0-1.647-1.223-2.197-11.636.354.591.942 1.223 1.217 1.538 0 0-.393 3.314.784 5.64-.157-.078 1.059-.985.314-5.995zM285.563 97.154l-.196-.236-.157-.276-.157-.316-.157-.316-.157-.315-.157-.316-.156-.355-.118-.355-.118-.394-.117-.395-.118-.394-.118-.434-.157-.828-.117-.395-.079-.394-.078-.395-.04-.355-.078-.355-.039-.355-.039-.355-.04-.315-.039-.316-.039-.276-.039-.276-.04-.237-.039-.118v-.079l-.039-.118v-.158l-.039-.04v-.197c-.314-.157-.549-.394-.824-.63-.118-.12-.235-.159-.353-.316 0 .276 0 .552-.039.828.314 4.339.667 8.836 2 11.084 1.334 2.209 3.766 3.314 3.766 3.314 2.275-4.103-.471-9.546-2.785-13.373-.275-.118-.549-.236-.863-.355.863 2.959 2.393 6.43 1.765 9.112zM291.214 84.61V84.965l-.039.078v.159l-.039.039v.119l-.039.038v.119l-.04.04V85.673l-.039.04v.158l-.039.04c-.039.039-.039.157-.079.315 1.922 1.854 3.335 3.668 6.159 7.613 2.824 3.984 7.335 4.102 7.335 4.102-.431-3.195-1.334-5.759-3.726-8.441-2.393-2.722-5.453-5.246-7.689-6.864-.588.276-1.333.434-2.314.316-.118 0-.157-.04-.235-.04.313.395.51.79.588 1.144 1.687.986 6.669 3.51 8.669 7.574.118-.237-3.02-1.223-8.473-7.021zM294.785 80.627l-.196-.355c-.04-.118-.118-.197-.197-.315 1.844.71 8.395 3.195 10.552 4.3 2.118 1.104 5.217 3.628 6.865 8.756 0 0-4.433.395-8.081-2.682-3.648-3.038-7.923-7.297-9.767-8.639.196-.157.353-.315.431-.473 0 0 4.943 4.418 10.199 6.311 0 0-1.137-2.011-3.216-3.51-2.511-1.775-4.394-2.367-6.59-3.393zM298.549 77.588l-.04-.04-.039-.078-.039-.08-.039-.039-.04-.079-.039-.079-.039-.039-.039-.079c2.157.473 7.61 1.105 10.042 1.854 2.392.75 6.786 2.525 9.375 7.534 0 0-3.845 1.184-11.023-2.209-7.178-3.392-9.453-4.102-10.826-4.497 1.098-.079 1.883-.434 2.275-.67 2.863 1.301 6.707 2.8 10.512 2.919 0 0-1.882-1.341-3.883-2.17a40.858 40.858 0 00-6.158-2.248zM298.351 73.999l-.118.079-.117.04-.157.039-.118.079-.117.04-.118.038-.118.04-.118.04-.117.039-.157.04-.118.039-.157.039-.157.04-.078.039h-.196l-.079.04h-.078l-.118.039c.51.316.981.75 1.412 1.302 2.511.75 6.826 1.538 13.965 2.05 7.139.553 10.944-.788 10.944-.788-2.471-1.539-6.433-3.077-9.1-3.59-2.668-.513-9.689-.434-12.788-.907-.039.04-.392.355-1.02.71 2.589.237 8.159.473 10.983 1.933.04-.118-5.217.592-12.16-1.42z"/>
      <path fill="#0837B8" d="M276.661 82.638l-.078-.08-.039-.039-.04-.04-.039-.039-.039-.04-.039-.039-.039-.04-.04-.039-.039-.04-.039-.039-.039-.039-.04-.04-.039-.039-.039-.04-.039-.039c-.393.513-1.609 2.052-2.236 3.59a59.12 59.12 0 00-1.177 4.102c-.274 1.065-.981 3.195-1.412 3.905 0 0 1.922.276 3.373-1.46 1.413-1.656 1.922-3.313 2.119-5.048.196-1.341.156-3.195-.04-4.457zM279.76 82.876l-.039.04-.039.039-.04.04-.039.039-.039.039-.039.04-.039.039-.04.04-.039.039-.039.04-.039.039-.04.04-.039.039-.039.039h-.039l-.039.04-.04.039-.039.04-.039.039h-.039l-.04.04h-.039l-.039.039.196-.119h-.078v.04l-.236.118-.314-.079c-.235-.079-.431-.197-.666-.276-.275.75-.393 1.144-.471 1.854-.118.907-.275 2.288.078 3.471.432 1.42 1.216 2.249 1.687 2.801 0 0 1.295-1.42 1.648-2.604.392-1.222.549-2.642.039-4.102-.196-.75-.628-1.46-.981-1.893zM284.154 82.994l-.118-.04h-.118l-.117-.039-.118-.04-.235-.039-.236-.04-.235-.078-.196-.04-.196-.078-.196-.08-.196-.117-.157-.08-.157-.078-.157-.08-.157-.118-.157-.118-.157-.079-.118-.118c-.156.434-.431 1.105-.235 1.933.196.907.824 1.893 1.687 2.603 1.294 1.065 3.059 2.051 4.981 1.736 0 .079.471-1.38-3.412-5.01z"/>
      <path fill="#0837B8" d="M285.645 80.548l-.039.118-.039.119-.039.118v.118l-.04.119-.039.079-.039.118-.039.118-.04.08-.039.078-.039.08-.039.117-.04.08-.039.078-.039.079-.039.079-.039.079-.04.079-.039.04-.039.039-.039.078-.04.04-.039.04-.039.039-.039.04-.039.039v.04l-.04.038-.039.04v.04h-.039v.039c.431.552 2.118 3.392 5.531 2.919 0 0 .902-1.933-1.373-3.471-1.255-1.144-2.001-1.342-3.06-1.736zM285.328 78.101l.157.04.196.04.196.039.196.04.197.038.196.04h.235l.235.04h.236l.235-.04h.235l.236-.04.118-.039h.156l.118-.04.118-.039.117-.04.157-.039.118-.04.118-.039.392-.078.157-.395c1.726 1.46 3.844 1.696 4.55 2.998 0 0-.902 1.617-3.177 1.341s-4.001-1.341-5.217-2.88c-.079-.157-.157-.591-.275-.907zM289.29 76.09l-.039-.04-.039-.04-.079-.078-.039-.119-.039-.157-.079-.119-.039-.118-.078-.118-.079-.119-.039-.118-.079-.158-.039-.079-.039-.04-.039-.078-.039-.08-.04-.078-.039-.04-.039-.078-.039-.08-.079-.078-.039-.079-.078-.079-.04-.04c1.491-.275 2.864-.315 4.629.04 2.118.395 4.276.868 5.335 4.103 0 0-1.373 1.183-3.805.67-2.118-.394-3.962-1.302-4.982-2.8zM290.195 72.582l.079-.079.117-.079.079-.118.118-.118.078-.118.118-.119.078-.118.118-.08.078-.118.118-.118.078-.118.079-.118.078-.158.079-.119.078-.157.079-.158.157-.395c1.843-.75 3.726-1.144 5.609-.433 1.844.71 2.353 1.538 2.824 2.209 0 0-2.04 1.735-4.393 1.814-2.511.118-4.707-.592-5.649-1.302zM289.645 68.831l-.117-.039-.079-.04h-.039l-.079-.039-.039-.04-.078-.039-.079-.04h-.078l-.039-.039-.079-.04h-.078l-.079-.039-.078-.04h-.079l-.078-.039c.824-.71 1.608-1.814 2-3.47.863.197 2.825.197 3.727-.12.863-.354 2.589-.354 3.962.553 0 0-.432 2.328-3.491 3.156-2.864.907-3.962.71-5.1.315zM290.703 64.216l-.392-.276c-.04-.04-.746-.434-1.883-.513.98-.75 3.295-2.722 4.942-3.629 1.805-1.026 4.786-2.406 6.316-2.603 0 0-1.413 3.786-3.099 5.285-1.687 1.578-2.864 2.17-5.884 1.736zM287.645 62.44l.156-.158.118-.197.118-.197.117-.197.118-.237.118-.237.118-.236.078-.237.118-.237.117-.237.118-.236.078-.276.079-.276.078-.276.079-.316.117-.276c.314-1.263 1.138-4.379 1.609-5.247.47-.828 2.157-3.628 5.452-4.496 0 0 .863 3.668-.784 6.627-1.452 2.564-4.354 5.246-8.002 6.942zM269.405 79.683l-.079.078-.078.08-.079.078-.078.04-.079.079-.078.04-.078.078-.079.04-.078.039-.118.079-.039.04-.04.039-.039.04-.039.038-.078.04-.04.04-.039.039-.039.04-.079.039-.039.04-.078.039-.079.04s-1.02 2.01.236 4.457c1.294 2.445 2.353 4.93 2.863 6.31 0 0 .706-.118 1.452-3.904.509-2.564 1.176-3.235 1.843-4.103-.745.355-1.334.474-1.412.474l-.51.118-.235-.513c-.471-.867-.589-1.696-.589-2.406 0-.237.04-.473.04-.67-1.177.039-1.844-.553-2.04-.868l-.079-.08-.117.08zM289.802 86.427l.236.236.235.237.275.276.274.316.314.315.275.316.313.355.314.355.314.355.314.355.314.394.313.395.275.434.314.434.314.433.274.434.314.474.275.473.274.474.236.512.235.474.235.512.196.474.157.552.157.513.118.512.118.553.117.552.04.552.039.552v.553l-.039.552s-4.786-1.499-6.747-5.05c-1.962-3.51-3.178-5.758-4.002-6.547a5.23 5.23 0 001.569 0l.432-.079c1.216 2.209 3.609 5.877 5.766 7.14 0 0 .549-2.959-5.766-8.915-.118-.237-.235-.513-.432-.828.589.236 1.256.315 2.001.315M252.85 38.778v-.04l.039-.04.039-.039.039-.04.04-.039.039-.039.039-.04.078-.039.079-.04.078-.039.118-.04.118-.039.117-.04.118-.039.118-.04.117-.039.118-.039.118-.04.157-.039.157-.04.156-.039.157-.04.157-.039h.079l.157-.04.157-.038h.353l.156-.04h.55c2.039 0 3.726.355 3.726.828 0 .434-1.687.79-3.726.79-2.04 0-3.648-.158-3.648-.592zM240.182 43.115l.039-.04v-.04l.039-.039.039-.04.04-.039h.039l.039-.04.039-.039.039-.039h.04l.078-.04.079-.039.039-.04h.117l.079-.039h.078l.118-.04.118-.039h.078l.118-.04h.235l.118-.038h.118l.117-.04h.628c1.294 0 2.393.197 2.393.434s-1.099.434-2.393.434c-1.373.197-2.471.04-2.471-.197zM257.324 40.508v.158l-.04.04v.039l-.039.04v.039l-.039.04v.039l-.039.04-.04.039-.039.039-.039.04-.039.039-.039.04-.04.039-.039.04-.039.039-.039.039-.04.04h-.039l-.039.039-.039.04h-.039l-.04.039h-.078l-.039.04h-.118a.747.747 0 01-.745-.75c0-.355.353-.71.745-.71.667-.237.981.118.981.473zM252.573 37.987l-.117-.316-.118-.276-.118-.237-.078-.276-.118-.236-.078-.276-.118-.237-.078-.237-.118-.236-.118-.237-.078-.237-.118-.236-.078-.237-.079-.197-.078-.198-.079-.197-.078-.197-.039-.158-.039-.157-.079-.159-.039-.157-.039-.158-.04-.158-.039-.157-.039-.119-.039-.118-.04-.119-.039-.118-.039-.079v-.276c.039-.434.549-.75 1.02-.907.51-.158.941-.197 1.255.04.628.512 1.255 4.496 1.452 6.192-.432.237-.824.316-1.57.67zM254.891 37.352l.04-.04h.157l.117-.039h.353l.236-.04c-.236-1.616-.746-4.22-1.099-5.285-.313-1.065-.745-1.814-1.412-2.012 0 0 .549 1.46.824 2.959.353 1.538.549 3.037.784 4.457zM250.928 42.68l.157-.04.117-.04.118-.039.118-.04.117-.038.157-.08.118-.039.118-.079.117-.079.118-.079.118-.079.117-.078.118-.08.118-.078.117-.079.079-.118.117-.08.079-.078.118-.079.078-.04.079-.078.078-.08.078-.039.079-.079.039-.04.039-.038.04-.04.039-.04.039-.039h.039v-.04c-2.314.395-2.863 1.855-2.863 1.855z"/>
      <path fill="#0837B8" d="M252.97 42.562l-.196.079-.157.079-.157.118-.196.079-.157.078-.157.08-.196.039-.157.079-.157.04-.235.039-.157.04-.157.039-.157.04-.157.039-.157.039-.157.04h-.157l-.117.039h-.118l-.118.04H248.93c.431-.75.823-1.5 2-2.328 1.216-.868 3.138-1.065 3.884-.986-.157.513-.942 1.735-1.844 2.288z"/>
      <path fill="#0837B8" d="M252.577 43.588c-1.412.67-5.844.75-8.198.868h-1.569l-.196-.079h-.235l-.197-.079h-.156l-.197-.079-.196-.079h-.157l-.196-.079h-.157l-.196-.079h-.117l-.197-.078-.117-.08h-.118l-.118-.078-.117-.079h-.196l-.079-.079h-.039l-.118-.079h-.078c.274 5.246 3.805 5.562 3.805 5.562-.039-.434 0-1.105 0-1.105 1.098 1.026 3.373 1.776 3.373 1.776-.039-.632-.235-1.184-.235-1.184.941.552 1.53.553 1.53.553-.118-.75-.55-1.618-.55-1.618.667.868 1.452.907 1.452.907.157-.433-.118-1.498-.118-1.498.353.433.981 1.538 2.942 1.972 2.001.434 2.864-.75 2.864-.75-1.923.119-3.727-1.735-3.727-1.735 1.02-.395 1.412-1.105 1.412-1.105-.627-.513-1.216-.552-1.216-.552 1.138-.276 1.412-1.144 1.412-1.144zm-6.746 1.972v.197s-3.06 0-3.178 1.539c-.51-.316-.745-.907-.863-1.617 0 0 2.158.118 4.041-.119zM239.083 44.061l.039.237.04.197.039.237.039.197.039.237.04.197.039.197.039.197.039.198v.118l.039.158.079.157.039.158.079.158.078.158.078.158s-1.412-1.026-1.725-1.933c-.353-.868-.432-1.46.98-1.026zM234.965 45.045c-.589.079-1.177.316-1.53.868-.706 1.065-.471 3.077 1.059 3.945 0 0 2.236-1.973 4.982-.08 0 0 .588-.355 2.039-.67v-.079h-.117v-.079l-.079-.079-.078-.079v-.079l-.079-.078-.078-.08-.078-.078-.079-.079-.078-.079-.079-.118h-.039l-.078-.119h-.04l-.078-.079-.118-.079-.078-.078-.079-.08-.117-.078-.079-.079-.078-.079-.118-.079-.118-.079-.078-.079c-.824-.355-2.55-.867-3.06-2.445-.392.236-1.02.118-1.647.197zm1.294 2.09c.314 0 .628.316.628.632v.157h-.079v.158h-.039v.158h-.078v.079h-.079v.079H236.495v.079h-.118l-.079.079h-.039c-.314 0-.549-.277-.549-.632 0-.473.235-.788.549-.788zM241.789 49.467l.039.04v.039h.039l.039.04.04.039.039.039.039.079.039.04.04.039.039.078.039.08.078.039.04.079.078.079.039.118.079.08.157.157.117.158.157.157.079.08.078.078.079.08.078.078.079.04.078.078.078.04.079.079s-3.687-.04-4.59 3.155c0 0-1.255-1.972-.353-3.234.942-1.38 1.883-1.578 3.178-1.854zM245.789 50.214l.039.039h.04l.039.04H246.024l.04.039.039.04h.039l.079.039.039.04h.078l.039.039.079.04.118.039.117.04.157.038.039.04.079.04.039.039h.078l.04.04.039.039h.039l.039.039h.04l.039.04s0-.671-.039-1.026c.353.079.784.197 1.176.237 0 0 1.177 2.603 2.119 3.668 0 0 .039.631-.471 1.46 0 0-.667-1.539-1.844-2.801-.627-.868-1.059-1.262-2.471-2.248zM242.691 49.703l.079.04h.078l.04.039.078.04.078.039.118.039.079.04.117.039.118.04.118.039.117.04.118.039.118.039.117.04.118.039.235.118.236.119.235.118.235.079.118.079.118.04.118.039.117.078.118.04.078.04.118.078.079.04c1.137.828 1.922 1.775 1.804 3.432 0 0-.902-1.302-1.922-1.894-.942-.552-2.432-1.854-3.178-2.958zM242.729 37.708h.079l.039.04h.118l.039.039h.078l.039.039h.04l.039.04h.039l.039.039.04.04.039.039.039.04.039.039.039.04.04.039.039.04.039.039.039.04.04.038.039.04.039.04.039.039v.079l.039.04v.118l.04.039v.119c0 .551-.902 1.932-1.138 2.524-.235-.592-1.098-1.933-1.098-2.525 0-.552.667-.75 1.02-.75h.078v-.354zM241.946 42.129l-.039-.119-.04-.078v-.08l-.039-.078-.039-.118-.039-.119-.04-.118V41.3l-.039-.118-.039-.118-.039-.237-.079-.237-.039-.276-.039-.236-.039-.119-.04-.118-.039-.118-.039-.119-.039-.078-.04-.08-.039-.118-.039-.118-.039-.08-.039-.078-.04-.079-.039-.079-.039-.04-.039-.039c-.471-.434-1.177-.473-1.491-.434-.353.04-.706.355-.549.829.157.473 1.647 2.761 1.844 3.037.47-.079.392-.079 1.255-.118zM243.281 42.124l.039-.118.04-.079v-.197l.039-.118.039-.119.039-.118.04-.118.039-.119.039-.118.039-.237.04-.236.039-.276.078-.237.039-.118.04-.119.039-.118.039-.119.039-.078.04-.08.039-.117.039-.119.039-.079.039-.079.04-.079.039-.079.039-.04.039-.038c.51-.434 1.138-.474 1.491-.434.353.039.706.355.549.828-.157.473-1.647 2.761-1.844 3.037-.431-.039-.392-.04-1.255-.079zM244.262 34.95h-1.177v-1.302h-.941v1.301h-1.177v.829h1.177v1.538h.941v-1.538h1.177v-.829zM229.983 43.388v-.434l.039-.079v-.198l.04-.039v-.04c.078-.63.117-1.222.039-1.656-.863.316-1.451.553-2.589 2.446-.078.079 1.804-1.105 2.471 0z"/>
      <path fill="#0837B8" d="M231.591 46.426v-.276l.039-.08v-.078l.039-.118.039-.08v-.117l.04-.08.039-.078V45.4l.039-.079.039-.118.04-.079.039-.197.039-.237.078-.236.04-.237.078-.237.079-.236.078-.237.039-.079.039-.118c.471-1.302.157-3.156-.392-4.26-.549-1.105-.863-2.13-.745-3.274 0 0-1.098.355-1.726.75-.118 1.34.667 2.642 1.02 3.391.431.868.353 2.012.235 2.722a5.065 5.065 0 00.785 3.787zM231.707 36.366v-.079h-.039V35.815l.039-.04v-.196l.039-.04v-.079l.04-.04s1.726-1.696 3.177-2.011c.941-.197 1.491.237 1.804.434 0 0-.549-.04-1.294.592-.785.63-1.726 1.42-2.511 1.617-.745.394-.902.355-1.255.315zM236.845 34.24l.117.119.118.118.118.119.078.118.118.118.078.118.04.04.039.079.039.04.039.078.04.08.039.039.039.078.039.04.039.04.04.078.039.04.039.078.039.04.04.079.039.04v.078l.039.04v.158c-.039.63-.745 2.208-1.138 2.8-.353.592-.902 1.38-.863 2.327.04.513.354.986.746 1.381 0 0-2.118-.513-2.393-1.815-.235-1.183.235-2.011.588-2.682.314-.631 1.334-2.051 1.53-2.643.275-.473.353-.946.275-1.223zM249.32 49.11l.079.275.117.316.079.276.118.276.078.276.118.276.117.276.118.237.118.237.117.276.118.236.118.237.157.237.117.237.118.236.157.197c.628 1.026 1.02 2.683.981 3.235 0 0 .941-2.13.47-3.629-.353-1.223-1.412-2.958-3.295-3.708zM251.674 49.624h.196l.039.04h.275l.078.04h.157l.118.039h.078l.118.04h.078l.079.039.118.04.078.038.118.04h.078l.118.04.078.039.079.04.078.039.079.04.078.038.078.04.079.04c.902.591 1.726 1.853 2.04 3.392 0 0-1.491-.237-2.197-.986-.863-.908-1.726-2.012-2.118-3.038zM244.145 52.265h-.157l-.04.04h-.078l-.039.039h-.118l-.039.039-.079.04-.117.039h-.118l-.118.04-.117.039-.118.04-.039.039-.039.04h-.04l-.039.039h-.078l-.04.04s1.256.354 1.844.867c.51.434.981 1.144 1.216 2.248.314 1.617 1.255 3.314 1.53 3.866l.118-.04c-.197-1.104.47-3.392.666-3.707 0 0-1.019-.631-1.451-1.302-.314-.592-.863-1.38-2.51-2.406zM250.614 55.7l.039.078.039.079.04.118.039.118.039.08.039.118.039.118.079.119.039.078.039.119.118.236.118.237.039.118.039.119.039.157.04.119.039.118.039.118.039.158.039.119.04.157.039.158V58.973l-.039.158v.118l-.04.158-.039.158-.039.158c-.431 1.538-1.412 2.208-2.04 3.51 0 0-.51-2.367-.392-4.181.039-1.972.706-2.682 1.53-3.353zM253.44 55.736l.039.04v.039l.039.04v.039l.04.04.039.039v.04l.039.039.039.078.039.08.04.118.078.118.039.118.079.158.078.118.079.158.039.158.078.158.079.158.118.157.156.355.118.316.079.158.078.157.079.158.039.158.039.158.039.118.039.158.04.118.039.119.039.118c.235 1.105 0 1.815-.51 2.485-.471.67-1.334 1.42-2.118 2.8 0 0-.902-1.182-1.02-1.814-.118-.63.078-2.13.275-2.721.157-.631.941-2.683 1.608-4.734zM254.146 64.81l-.039.039v.04l-.04.039-.039.039-.039.04-.079.039-.039.079-.078.079-.079.118-.078.079-.079.118-.078.08-.118.117-.078.08-.079.118-.078.118-.196.237-.157.236-.118.119-.078.118-.079.118-.078.119-.079.118-.078.118-.078.119-.079.078-.078.119-.04.118-.039.08-.039.078-.039.04-.039.04v-.12h.078c-.235.632-.628 1.736-.118 2.525.549.79 1.726 2.051 2.785 2.603 0 0-1.137-1.814-1.02-3.273.079-.947.824-1.815.942-2.367.157-.592.039-1.578-.353-2.446zM250.812 63.665l.04.079.039.04.039.039.039.04.04.039.039.04.039.039.039.078.039.04.04.079.039.04.039.078.039.04.079.157.039.158.039.158.039.158.04.158.039.157v.119l.039.079.039.078v.198l.04.079c.039.828-.079 1.538-.55 2.8-.549 1.538-1.49 3.314-1.882 4.103 0 0-.824-1.144-1.256-2.17 0 0 1.256-1.736 1.766-2.919.549-1.538.784-2.88 1.019-3.984zM250.263 62.995l-.04.04v.158l-.039.118-.039.08-.039.157-.04.157.04.119-.04.158-.039.197-.039.237-.078.236-.04.237-.078.237-.079.276-.117.236-.079.277-.117.315-.118.276-.118.316-.117.316-.118.315-.157.276-.157.316-.157.276-.157.315-.196.316-.157.316-.196.276-.196.315-.235.276c-1.609 2.012-2.903 2.722-3.766 2.722-1.295 0-2.589-1.104-3.06-2.327-.431-1.223-.274-3.195.549-3.866 0 0 .785 2.406 2.432 2.525 1.962 0 4.355-2.13 6.787-6.193z"/>
      <path fill="#0837B8" d="M248.341 61.3l.04.078v.08l.039.078v.079l.039.158.039.158v.157l.04.158.039.158v.552l-.039.197-.04.198v.197l-.039.197-.039.197-.039.197c-.196.79-.667 1.815-1.609 2.407-.823.512-2.667.63-3.412-1.184-.04.04 3.412.316 4.981-4.063zM253.948 77.59l.039.119.04.118.078.118.039.119.079.118.078.118.118.119.078.118.157.236.157.237.196.237.157.237.157.236.118.119.078.118.079.118.078.119.079.118.078.118.039.119.04.118.039.079.039.118.039.118.039.119v.079l.04.079c-.04 2.524-1.138 4.023-1.412 4.89 0 0-2.001-1.616-2.315-3.43-.196-.948 0-3.748 1.569-5.129zM251.712 79.363l.039-.079.039-.079.039-.079.04-.079.039-.118.039-.079.039-.118.04-.118.039-.08.039-.118.039-.118.04-.118.117-.237.118-.237.118-.236.117-.237.079-.079.039-.118.078-.118.079-.119.078-.079.079-.118.078-.118.079-.08.078-.078.079-.079.078-.079.078-.079s1.099-3.195-2.392-5.167c0 0-1.452 1.893-1.805 3.707-.431 2.012 1.452 3.077 2.354 4.734zM247.357 71.198l-.117.158-.118.118-.118.158-.117.158-.118.118-.118.158-.157.158-.117.118-.118.118-.118.158-.078.04-.079.04-.039.078-.078.04-.039.039-.079.04-.039.039-.079.04-.039.039-.078.04-.039.039-.079.039s-.235 1.42-.078 2.406c.157 1.42 1.098 2.88 1.49 3.945 0 0 1.53-2.012 1.687-3.195.157-1.184.157-2.13.196-2.722-.039 0-.863-1.38-1.334-2.367zM243.317 78.103l-.04-.079-.039-.079-.039-.079-.039-.079-.079-.118-.039-.118-.078-.119-.079-.118-.078-.158-.079-.118-.078-.158-.079-.158-.078-.157-.079-.158-.117-.158-.079-.158-.157-.355-.157-.355-.117-.355-.039-.158-.079-.157-.039-.198-.039-.157-.04-.158-.039-.197-.039-.158-.039-.158v-.158l-.039-.158s1.725.947 3.177.237c0 0 .157 2.328-.118 3.077-.157.513-.431.907-1.137 1.42zM243.711 78.617l.039-.04.039-.04.04-.039.039-.039.039-.04.039-.039.04-.04.039-.039.039-.04.039-.038.118-.119.078-.079.118-.079.118-.079.078-.118.118-.079.039-.04.039-.039.039-.04.04-.039.039-.039.039-.04.039-.039.04-.04.039-.039.039-.04s1.138 2.13 1.334 2.722c0 0-.549.119-1.216-.315-.746-.316-.942-.473-1.53-1.065zM249.007 77.352l-.039.04-.039.04v.039l-.039.039-.04.04-.039.039-.039.04-.039.118-.04.079-.078.118-.079.118-.078.119-.078.157-.118.119-.079.158-.117.118-.118.158-.196.276-.196.276-.118.118-.118.158-.078.118-.118.119-.078.118-.079.118-.078.08-.118.118-.039.078-.078.08-.04.039-.039.04-.039.039-.039.04-.039.039-.04.04-.039.039-.039.039s.157.947.824 2.249c.706 1.34 1.647 2.287 2.157 2.76 0 0 1.138-2.011 1.451-2.84.393-1.025.353-2.011.157-2.406 0-.907-1.333-2.17-1.922-3.274zM251.794 84.096l.039.078.04.08.039.118.039.079.078.118.04.079.078.079.039.079.079.118.078.118.157.197.118.237.157.197.157.237.157.237.117.236.039.119.079.118.039.118.039.119.04.079.039.118.039.118.039.119.039.118v.118c.157.829.04 1.539-.196 2.13-.235.553-.98 1.697-1.451 2.564 0 0-1.687-1.617-2.04-2.721-.274-.868-.157-2.09.236-2.88.353-.907 1.255-1.696 1.647-2.524zM247.003 83.903l.039.079.04.118.039.079.039.079.039.118.04.079.117.158.118.197.118.158.156.158.118.157.118.158.118.158.117.158.039.079.04.118.039.079.039.118.039.08.04.078.039.118.039.08.039.078.039.079c.275.947.354 1.617-.117 2.761-.432 1.026-.942 1.618-1.099 2.21 0 0-1.372-1.776-1.608-2.525-.235-.75-.274-1.973-.039-2.722.431-.79.902-1.775 1.255-2.485zM253.753 90.685l-.039.04-.039.039-.04.04-.039.038-.039.04-.039.04-.04.039-.039.04-.039.039-.039.04-.079.078-.078.119-.118.118-.118.118-.117.158-.118.158-.118.158-.117.157-.118.158-.118.158-.117.158-.118.157-.078.198-.118.157-.079.158-.117.198-.079.157-.078.158-.079.197-.039.158-.078.158-.039.158-.04.157-.039.08v.236c.079 1.893 1.334 3.116 1.491 4.3 0 0 1.255-1.42 1.726-2.328.51-1.104.941-1.972.784-3.195.118-1.065-.196-1.814-1.412-3.037zM249.399 90.409l.04.04.039.078.039.079.039.079.04.079.039.118.039.08.039.117.079.119.039.118.039.118h.157l.039.119.04.118.078.237.039.157.039.119.04.118.039.119.039.157.039.119.04.118.039.118.039.158.039.119v.473l-.039.118-.039.118c-.314 1.105-1.452 2.683-1.844 3.353 0 0-.941-1.932-1.137-2.8-.157-.868 0-2.288 1.882-4.063zM272.975 43.115l-.039-.04v-.04l-.039-.039-.04-.04-.039-.039h-.039l-.039-.04-.04-.039-.039-.039h-.039l-.079-.04-.039-.039-.078-.04h-.039l-.118-.039h-.079l-.117-.04-.079-.039h-.117l-.118-.04h-.196l-.118-.038h-.235l-.118-.04h-.51c-1.333 0-2.393.197-2.393.434s1.099.434 2.393.434c1.334.197 2.393.04 2.393-.197zM256.617 35.699l.039-.08.04-.118.039-.118.039-.118.039-.119.04-.118.039-.158.039-.158.039-.157.039-.158.118-.316.118-.315.117-.316.118-.276.118-.316.039-.157.078-.158.04-.158.039-.158.039-.118.039-.158.04-.118.039-.119.039-.118.039-.118v-.197a1.41 1.41 0 00-1.412-1.42 1.41 1.41 0 00-1.412 1.42c0 1.025 1.255 3.313 1.412 4.418zM260.579 37.987l.118-.316.118-.276.117-.237.118-.276.118-.236.078-.276.118-.237.078-.237.118-.236.078-.237.118-.237.079-.236.117-.237.079-.197.078-.198.079-.197.039-.197.078-.158.039-.157.04-.159.039-.157.039-.158.039-.158.04-.157.039-.119.039-.118.039-.119v-.118l.039-.079v-.276c0-.434-.549-.75-1.019-.907-.55-.158-.942-.197-1.295.04-.627.512-1.216 4.496-1.49 6.192.588.237.98.316 1.686.67zM258.344 37.352l-.079-.04h-.157l-.117-.039h-.353l-.118-.04h-.118c.196-1.616.746-4.22 1.059-5.285.353-1.065.746-1.814 1.413-2.012 0 0-.51 1.46-.824 2.959-.314 1.538-.51 3.037-.706 4.457zM259.48 40.907l.04.039v.04h.039l.039.039.039.04.04.039.039.04.078.078.04.04.078.078.078.08.118.039.079.078.117.08.118.079.118.118.117.079.118.079.118.078.117.08.079.078.117.079.118.079.118.079.117.04.118.078.118.04.157.04.117.039.118.04.118.038c-.039-.079-.628-1.538-2.825-1.853z"/>
      <path fill="#0837B8" d="M258.342 40.196h.157l.078-.04h.314l.078.04h.236l.117.039h.118l.118.04.117.039h.157l.118.04.157.039.118.04.156.039.157.04.118.038.157.04.157.04.118.039.156.04.157.039.118.079.118.039.157.079.117.079.118.04.118.118.117.079c1.216.828 1.608 1.538 2.001 2.327 0 0-2.158.158-4.04-.947-.903-.631-1.687-1.854-1.883-2.445zM260.656 43.587s.235.907 1.333 1.42c0 0-.588.04-1.176.553 0 0 .353.71 1.333 1.104 0 0-1.804 1.854-3.726 1.736 0 0 .902 1.144 2.863.75 2.001-.435 2.589-1.54 2.942-1.973 0 0-.235 1.065-.117 1.499 0 0 .863-.08 1.53-.907 0 0-.51.867-.628 1.617 0 0 .549 0 1.53-.552 0 0-.236.512-.236 1.183 0 0 2.315-.75 3.413-1.775V49.228l-.078.079v.316s3.53-.316 3.805-5.562c0 0-2.315.867-4.708.75-2.275-.514-6.668-.593-8.08-1.224zm6.668 1.973c1.883.236 4.119.118 4.119.118v.118h-.078v.119l-.079.118v.118l-.078.08v.157l-.079.079v.158h-.078v.078l-.079.08v.078l-.078.08-.079.078v.079h-.078l.078-.118v.079h-.078l-.079.079v.078h-.078l-.078.08-.079.078c-.118-1.538-3.177-1.538-3.177-1.538v-.276h.078zM274.113 44.06l-.04.237-.039.197-.039.237-.039.197-.039.237-.04.197-.039.197-.039.197-.039.197-.04.198-.078.158-.039.157-.079.158-.039.158-.078.158-.079.158s1.412-1.026 1.726-1.933c.392-.947.471-1.539-.941-1.105zM277.093 45.048l-.118.079h-.156l-.118.079h-.157c-.51 1.577-2.275 2.09-3.138 2.445-.902.434-1.765 1.5-1.765 1.5 1.412.315 2.079.67 2.079.67 2.706-1.894 4.981.079 4.981.079 1.452-.868 1.766-2.88 1.06-3.945l-.118-.118-.079-.119-.078-.078-.118-.08-.078-.078-.118-.08-.078-.078-.118-.079-.118-.079-.078-.079h-.118l-.118-.079h-.117l-.079-.078H277.093v.118zm-.196 2.09h.235v.08h.157v.078h.079l.078.08v.078h.079v.079h.078v.316l.079.078c0 .316-.275.632-.628.632-.314 0-.549-.277-.549-.632-.157-.473.078-.788.392-.788zM271.404 49.467l-.039.04v.039l-.04.04-.039.039-.039.039-.039.04-.039.078-.04.04-.039.04-.078.078-.04.079-.039.04-.078.078-.04.04-.078.118-.039.08-.157.157-.157.158-.118.157-.078.08-.079.078-.078.08-.079.078-.078.04-.078.078-.079.04-.078.079s3.648-.04 4.589 3.155c0 0 1.255-1.972.353-3.234-.941-1.38-1.843-1.578-3.177-1.854z"/>
      <path fill="#0837B8" d="M267.404 50.214l-.04.039h-.078v.04h-.079l-.039.039-.039.04h-.078l-.04.039-.039.04h-.078l-.04.039-.078.04-.118.039-.157.04-.117.038-.079.04-.039.04-.078.039h-.079l-.078.04-.04.039h-.039l-.039.039h-.039l-.039.04s-.04-.671.039-1.026c-.353.079-.824.197-1.216.237 0 0-1.138 2.603-2.079 3.668 0 0-.039.631.471 1.46 0 0 .666-1.539 1.843-2.801.667-.868 1.098-1.262 2.511-2.248zM270.502 49.703h-.04l-.039.04h-.039l-.079.039-.078.04-.078.039-.079.039-.118.04-.117.039-.118.04-.118.039-.117.04-.118.039-.118.039-.117.04-.118.039-.235.118-.236.119-.235.118-.235.079-.118.079-.118.04-.117.039-.118.078-.118.04-.117.04-.118.078-.079.04c-1.137.828-1.922 1.775-1.843 3.432 0 0 .941-1.302 1.961-1.894.981-.552 2.471-1.854 3.217-2.958zM270.503 37.708h-.078l-.04.04H270.268l-.04.039h-.078l-.039.039h-.079l-.039.04h-.039l-.039.039-.04.04-.039.039-.039.04-.039.039-.04.04-.039.039-.039.04-.039.039-.039.04-.04.038-.039.04-.039.04-.039.039v.079l-.04.04v.118l-.039.039v.119c0 .551.902 1.932 1.138 2.524.235-.592 1.098-1.933 1.098-2.525 0-.552-.667-.75-1.02-.75h-.039v-.354zM271.246 42.129l.039-.119v-.078l.04-.08.039-.078v-.118l.039-.119.039-.118.039-.119.04-.118.039-.118.039-.237.039-.237.04-.276.078-.236.039-.119.039-.118.04-.118.039-.119.039-.078.039-.08.04-.118.039-.118.039-.08.039-.078.04-.079.039-.079.039-.04.039-.039c.471-.434 1.138-.473 1.491-.434.353.04.706.355.549.829-.157.473-1.648 2.761-1.844 3.037-.431-.079-.392-.079-1.255-.118zM269.912 42.129v-.119l-.039-.078-.04-.08-.039-.078v-.118l-.039-.119-.039-.118-.04-.119-.039-.118-.039-.118-.039-.237-.039-.237-.079-.276-.039-.236-.039-.119-.04-.118-.039-.118-.039-.119-.039-.078-.039-.08-.04-.118-.039-.118-.039-.08-.039-.078-.04-.079-.039-.079-.039-.04-.039-.039c-.471-.434-1.138-.473-1.491-.434-.314.04-.706.355-.549.829.118.473 1.648 2.761 1.844 3.037.47-.079.392-.079 1.255-.118zM268.934 34.95h1.176v-1.302h.981v1.301h1.177v.829h-1.177v1.538h-.981v-1.538h-1.176v-.829zM254.732 27.178h1.216v-1.302h.942v1.302h1.177v.828h-1.177v1.538h-.942v-1.538h-1.216v-.828zM283.252 43.392v-.198l-.039-.118v-.277l-.039-.039v-.118c-.118-.631-.118-1.223-.039-1.657.863.316 1.451.553 2.589 2.446 0 .04-1.844-1.144-2.472-.04zM281.604 46.426l-.04-.04v-.158l-.039-.078v-.08l-.039-.078v-.118l-.039-.08v-.117l-.04-.08-.039-.078-.039-.119-.039-.079-.039-.118-.04-.079-.039-.197-.039-.237-.039-.236-.079-.237-.039-.237-.078-.236-.079-.237-.039-.079-.039-.118c-.471-1.302-.197-3.156.353-4.26.549-1.105.902-2.13.745-3.274 0 0 1.138.355 1.726.75.118 1.34-.667 2.642-1.02 3.391-.431.868-.353 2.012-.235 2.722.353 1.302.078 2.604-.706 3.787zM281.484 36.366v-.592l-.039-.039v-.197l-.04-.04v-.079s-1.765-1.696-3.216-2.011a1.945 1.945 0 00-1.726.434s.471-.04 1.255.592c.785.63 1.726 1.42 2.471 1.617.785.394.942.355 1.295.315zM276.308 34.24l-.118.119-.117.118-.118.119-.118.118-.117.118-.079.118-.039.04-.039.079-.04.04-.039.078-.039.08-.039.039-.039.078-.04.04-.039.04-.039.078-.039.04-.04.078-.039.04v.079l-.039.04-.039.078v.198c0 .63.745 2.208 1.098 2.8.353.592.941 1.38.863 2.327-.039.513-.353.986-.745 1.381 0 0 2.118-.513 2.392-1.815.236-1.183-.274-2.011-.627-2.682-.314-.631-1.295-2.051-1.53-2.643-.118-.473-.235-.946-.196-1.223zM263.911 49.11l-.079.275-.117.316-.079.276-.117.276-.079.276-.118.276-.117.276-.118.237-.118.237-.117.276-.118.236-.157.237-.118.237-.117.237-.157.236-.118.197c-.667 1.026-1.059 2.683-.981 3.235 0 0-.98-2.13-.47-3.629.353-1.223 1.373-2.958 3.295-3.708zM261.479 49.624h-.157l-.039.04h-.274l-.079.04h-.196l-.079.039h-.117l-.079.04h-.117l-.079.039-.117.04-.118.038-.079.04h-.117l-.118.04-.078.039-.079.04-.118.039-.078.04-.078.038-.079.04-.078.04c-.863.591-1.726 1.853-2.001 3.392 0 0 1.451-.237 2.197-.986.902-.908 1.843-2.012 2.157-3.038zM269.05 52.265h.196l.039.04h.079l.039.039h.079l.039.039h.039l.039.04.118.039h.078l.118.04.078.039.118.04.039.039h.04l.039.04h.039l.039.039h.079l.039.04s-1.255.354-1.883.867c-.51.434-.981 1.144-1.177 2.248-.313 1.617-1.255 3.314-1.529 3.866l-.118-.04c.157-1.104-.51-3.392-.706-3.707 0 0 .98-.631 1.451-1.302.392-.592.981-1.38 2.589-2.406zM262.578 55.7l-.039.078-.039.079-.039.079-.04.118-.039.079-.039.118-.039.119-.04.118-.039.079-.039.118-.118.237-.078.237-.039.118-.04.118-.039.158-.039.118-.039.119-.039.118-.04.158-.039.118-.039.158-.039.158V59.21l.039.157.039.158.039.158c.471 1.538 1.491 2.21 2.119 3.51 0 0 .47-2.366.353-4.18-.118-1.933-.785-2.643-1.609-3.314zM256.616 60.034v-.079l.04-.118.039-.119.039-.118.079-.079.039-.118.078-.119.079-.118.078-.158.079-.118.117-.158.079-.158.117-.157.079-.158.196-.316.196-.315.079-.158.117-.158.079-.158.117-.157.079-.158.078-.158.079-.158.039-.118.039-.158.039-.118.04-.158.039-.118v-.198c-.118-1.183-1.687-2.011-2.04-2.209h-.039c-.392.158-1.961 1.026-2.04 2.21-.118 1.183 2.001 3.392 2.04 4.26h-.079v.118zM259.792 55.736l-.039.04v.039l-.039.04-.04.039v.04l-.039.039-.039.04-.039.078-.04.079-.078.118-.039.119-.079.118-.039.158-.078.118-.079.158-.078.158-.079.158-.078.157-.079.158-.157.355-.157.316-.078.157-.039.158-.079.158-.039.158-.078.157-.04.119-.039.157-.039.119-.039.118-.04.119c-.235 1.104-.039 1.814.471 2.485.51.67 1.334 1.42 2.119 2.8 0 0 .902-1.183 1.019-1.814.118-.631-.039-2.13-.274-2.722-.118-.592-.902-2.643-1.53-4.694zM256.617 66.742l.118-.118.117-.118.118-.119.118-.118.117-.118.118-.119.118-.118.117-.158.079-.118.118-.119.039-.079.039-.039.039-.079.039-.04.04-.078.039-.04.039-.039.039-.079.04-.04.039-.039.039-.04.039-.039c.157-.512.236-1.262-.235-1.814-.51-.67-1.177-1.42-1.216-2.051h-.039c-.039.63-.706 1.38-1.216 2.05-.432.553-.392 1.303-.196 1.815 0 .395.588 1.263 1.294 1.854zM259.05 64.81l.039.039.039.04.039.039.039.039.04.04.039.078.078.08.079.117.078.08.079.118.117.079.079.118.078.079.118.118.078.119.197.236.156.237.118.118.118.118.078.119.079.118.078.119.079.118.078.118.039.08.079.118.039.118.039.079.039.079.04.04v.039l.039.04v-.12c.235.632.627 1.736.118 2.525-.51.79-1.726 2.051-2.786 2.603 0 0 1.138-1.814 1.02-3.273-.078-.947-.784-1.815-.941-2.367-.235-.592-.157-1.578.275-2.446zM262.343 63.665l-.04.079-.039.04v.039l-.039.04-.039.039-.039.04-.04.039-.039.078-.039.04-.039.079-.04.04-.039.078-.039.04-.079.157-.039.158-.039.158-.039.158-.039.158-.04.157-.039.119v.079l-.039.078v.08l-.039.118v.079c-.04.828.078 1.538.549 2.8.549 1.538 1.451 3.314 1.883 4.103 0 0 .784-1.144 1.216-2.17 0 0-1.256-1.736-1.805-2.919-.47-1.538-.745-2.88-.98-3.984zM262.934 62.995v.04l.039.079v.079l.039.118.039.08.039.157.04.157.039.158.039.158.039.197.04.237.039.237.078.237.079.236.078.276.079.237.078.276.118.316.078.276.118.315.118.316.117.315.157.276.157.316.157.276.157.316.157.315.196.316.196.276.196.316.236.276c1.608 2.011 2.902 2.721 3.765 2.721 1.295 0 2.589-1.104 3.06-2.327.431-1.223.314-3.195-.549-3.866 0 0-.785 2.407-2.472 2.525-1.922-.04-4.354-2.17-6.746-6.232z"/>
      <path fill="#0837B8" d="M264.894 61.3l-.04.078-.039.08v.078l-.039.079-.039.079v.079l-.039.158-.04.157-.039.158v.907l.039.198.04.197.039.197.039.197.039.197c.196.79.667 1.815 1.609 2.407.784.512 2.667.63 3.373-1.184.039.04-3.373.316-4.903-4.063zM256.577 73.29l.118-.04.078-.039.118-.04.079-.039.117-.04.079-.038.039-.04.039-.04.039-.039.04-.04.039-.039.039-.04.039-.039.04-.04.039-.039.039-.04.039-.039.039-.04.04-.038.039-.08.039-.039.039-.079.04-.039.039-.079.039-.079.078-.118c.432-.67.824-1.894.628-2.8-.314-1.105-.902-1.54-1.255-2.21-.275.276-.432.474-.824.71h-.039c-.353-.236-.549-.434-.824-.71-.353.71-.941 1.144-1.216 2.21-.235.867.157 2.13.628 2.8.588.868 1.02 1.025 1.49 1.262zM256.576 80.077l.039-.118.039-.08.039-.118.04-.118.078-.118.078-.119.079-.118.118-.118.117-.158.118-.158.078-.118.118-.158.196-.316.236-.315.196-.316.078-.157.118-.158.078-.158.079-.119.078-.157.079-.158.078-.118.039-.158.04-.118.039-.119.039-.118v-.277c-.314-1.695-1.412-1.34-2.236-2.05h-.039c-.824.71-1.922.355-2.236 2.05-.235 1.105 1.961 3.196 2.197 4.26zM259.245 77.59l-.039.119-.078.118-.04.118-.078.119-.078.118-.079.118-.078.119-.079.118-.157.236-.196.237-.157.237-.196.237-.157.236-.078.119-.079.118-.078.118-.079.119-.078.118-.039.118-.079.119-.039.118-.039.079-.039.118-.04.118-.039.119-.039.079v.079c.039 2.524 1.137 4.023 1.373 4.89 0 0 2-1.616 2.353-3.43.197-.948 0-3.748-1.569-5.129zM261.478 79.363l-.039-.079-.039-.079-.039-.079-.04-.079-.039-.118-.039-.079-.039-.118-.04-.118-.039-.08-.039-.118-.039-.118-.039-.118-.079-.237-.118-.237-.117-.236-.118-.237-.078-.079-.079-.118-.078-.118-.079-.119-.078-.079-.079-.118-.078-.118-.079-.08-.078-.078-.078-.079-.079-.079-.118-.079s-1.098-3.195 2.393-5.167c0 0 1.452 1.893 1.844 3.707.471 2.012-1.452 3.077-2.354 4.734zM265.875 71.198l.078.158.118.118.118.158.117.158.118.118.118.158.117.158.118.118.157.118.118.158.039.04.078.04.079.078.039.04.079.039.039.04.078.039.039.04.079.039.039.04.079.039.039.039s.235 1.42.117 2.406c-.156 1.42-1.098 2.88-1.451 3.945 0 0-1.53-2.012-1.687-3.195-.196-1.184-.157-2.13-.235-2.722.039 0 .902-1.38 1.373-2.367zM269.876 78.103l.039-.079.039-.079.04-.079.078-.079.039-.118.079-.118.078-.119.039-.118.079-.158.078-.118.079-.158.078-.158.079-.157.078-.158.079-.158.078-.158.157-.355.157-.355.118-.355.078-.158.039-.157.039-.198.04-.157.039-.158.039-.197.039-.158.04-.158v-.316s-1.726.947-3.138.237c0 0-.197 2.328.078 3.077.196.513.549.907 1.216 1.42zM269.48 78.615l-.039-.04-.04-.04-.039-.039-.039-.04-.039-.039-.04-.04-.039-.039-.039-.04-.039-.038-.039-.04-.04-.04-.117-.078-.118-.08-.079-.078-.078-.118-.078-.08-.04-.039-.039-.04-.039-.039-.039-.039-.04-.04-.039-.039-.039-.04-.039-.039-.039-.04-.04-.039s-1.137 2.13-1.333 2.722c0 0 .549.118 1.176-.316.706-.394.824-.552 1.452-1.143zM264.187 77.352l.039.04.039.04v.039l.039.039.039.04v.039l.04.04.039.118.078.079.04.118.078.118.078.119.079.157.078.119.079.158.118.118.078.158.196.276.196.276.118.118.118.158.117.118.079.119.078.118.079.118.117.08.079.118.078.078.039.08.04.039.039.04.039.039.039.04.04.039v.04l.039.039.039.039s-.157.947-.824 2.249c-.706 1.34-1.647 2.287-2.157 2.76 0 0-1.138-2.011-1.491-2.84-.392-1.025-.353-2.011-.157-2.406.196-.907 1.491-2.17 2.119-3.274zM256.617 92.658l.039-.079.039-.079.04-.079.039-.079.039-.039.039-.079.039-.079.04-.079.039-.078.039-.08.079-.118.039-.079.117-.157.118-.158.118-.158.157-.158.117-.197.118-.197.079-.118.039-.119.078-.079.039-.118.04-.118.039-.119.039-.118.039-.118c.236-.71.236-1.578-.039-2.17-.314-.67-1.53-2.327-1.687-2.8-.157.473-1.333 2.13-1.647 2.8-.314.592-.314 1.46-.039 2.17.431 1.222 1.49 2.05 1.686 2.8h.079v.08zM261.402 84.096l-.039.078-.04.08-.039.118-.039.079-.039.118-.079.079-.039.079-.078.079-.079.118-.078.118-.118.197-.157.237-.157.197-.157.237-.117.237-.118.236-.079.119-.039.118-.039.118-.078.119-.04.079-.039.118-.039.118-.039.119-.04.118-.039.118c-.157.829 0 1.539.196 2.13.236.553.981 1.697 1.452 2.564 0 0 1.686-1.617 2.079-2.721.274-.868.196-2.09-.236-2.88-.392-.907-1.255-1.696-1.647-2.524zM266.189 83.903l-.04.079-.039.118-.039.079-.039.079-.039.118-.04.079-.117.158-.118.197-.157.158-.118.158-.157.157-.117.158-.118.158-.118.158-.039.079-.039.118-.039.079-.039.118-.04.08-.039.078-.039.118-.039.08-.04.078-.039.079c-.274.947-.353 1.617.118 2.761.431 1.026.941 1.618 1.098 2.21 0 0 1.373-1.776 1.609-2.525.235-.75.313-1.973.039-2.722-.353-.79-.863-1.775-1.216-2.485zM256.575 106.348l.039-.118.039-.079.04-.119.039-.118.039-.118.039-.119.04-.157.078-.158.078-.158.079-.158.078-.158.079-.197.078-.197.079-.197.117-.197.079-.237.118-.198.078-.236.078-.237.079-.237.118-.236.078-.237.078-.237.079-.236.078-.237.04-.237.039-.276.039-.236.039-.277.04-.276.039-.236v-.276c.078-1.42-1.216-3.708-1.922-4.537h-.04c-.706.829-1.961 3.116-1.922 4.536 0 2.801 1.766 5.484 1.844 6.391zM259.44 90.685l.039.04.04.039.039.04.039.038.039.04.04.04.039.039.039.04.039.039.039.04.079.078.078.119.079.118.117.118.079.158.118.158.117.158.118.157.078.158.118.158.079.158.117.157.079.198.117.157.079.158.078.198.079.157.078.158.079.197.039.158.039.158.039.158.04.157v.316c-.04 1.893-1.295 3.116-1.491 4.3 0 0-1.216-1.42-1.687-2.328-.549-1.104-.941-1.972-.784-3.195.078-1.065.431-1.814 1.647-3.037zM263.796 90.409l-.039.04-.039.078-.04.079-.039.079-.039.079-.039.118-.04.08-.078.117-.039.119-.039.118-.04.118h-.157l-.039.119-.039.118-.118.276-.039.158-.039.118-.039.119-.04.118-.039.158-.039.118-.039.118-.039.119-.04.158v.118l-.039.118v.237l.039.118v.119l.04.118c.274 1.105 1.451 2.682 1.843 3.353 0 0 .941-1.933 1.138-2.8.235-.908.039-2.328-1.844-4.103z"/>
      <path fill="#0837B8" d="M258.226 110.922l.039-.198.04-.197.039-.197.039-.197.039-.198.04-.157.039-.158.039-.158.078-.158.04-.158.039-.157.078-.158.079-.158.039-.158.157-.276.118-.276.157-.276.117-.237.118-.236.039-.119.039-.118.04-.118.039-.119.039-.118.039-.118.039-.119.04-.079c.235-1.301.157-2.485-.824-3.984-.785 2.722-1.648 4.734-2.314 6.114-.04.04-.04.079-.079.119 0-.04-.039-.079-.039-.119a37.682 37.682 0 01-2.354-6.114c-.98 1.46-1.098 2.683-.823 3.984.235 1.144 1.451 2.486 1.608 4.695.157 2.248-2.354 3.076-2.354 3.076.863.316 1.805.434 3.335-1.025.274-.277.509-.553.627-.868.157.315.392.591.628.868 1.53 1.459 2.51 1.301 3.334 1.025-.039-.079-2.55-.907-2.393-3.155zM250.34 96.13l.039.08.04.118.039.079.039.079.039.118.04.118.039.119.039.079.078.197.079.197.118.237.078.197.118.237.039.079.039.118v-.04l.039.119.04.118.039.08.039.117.039.08.04.078.039.04.039.079.039.039v.079l.039.04c.197.906-.078 1.972-1.647 3.116 0 0-1.02-.75-1.451-1.697-.393-.907-.157-1.538.235-1.972.274-.552 1.255-1.617 1.608-2.327zM253.712 99.403v.158l-.039.118v.197l-.039.118v.119l-.04.118-.039.118-.039.158-.039.158-.039.158-.04.157-.039.158-.039.158-.079.316-.078.315-.118.355-.039.158-.039.158-.079.158-.039.157-.039.158-.039.158.078.039-.039.119-.079.118-.039.118c-1.02 1.736-2.471 3.077-3.765 3.077-1.177 0-1.413-.71-2.04-1.026 0 0 .314-1.538 1.647-1.932 1.648-.474 4.158-2.446 5.178-4.34z"/>
      <path fill="#0837B8" d="M249.436 102.636l-.039-.039-.039-.039-.118-.079-.039-.04-.039-.039-.079-.04-.039-.039-.039-.04-.039-.039-.04-.04-.039-.039-.039-.039-.039-.04-.04-.039-.039-.04-.039-.039-.039-.04-.039-.039-.04-.039-.039-.04-.039-.039s-1.255.473-2.314 1.183c-1.02.71-2.04 1.933-2.589 2.524 0 0 1.53.395 2.549-.039 0 0 .353-1.499 1.452-2.169.353-.04 1.098-.277 1.843-.632zM248.105 101.338l-.039-.079-.039-.04-.039-.039-.04-.04-.039-.039-.039-.04-.039-.039-.039-.04-.04-.039-.039-.079-.039-.039-.039-.04-.04-.079-.039-.078-.039-.04-.039-.079-.04-.079v-.079l-.039-.079-.039-.078-.039-.079-.039-.119v-.078l-.04-.08v-.236l-.039-.079v-.237l.039-.118v-.118s-2.196 1.42-2.863 1.932c-.667.553-2.04 1.973-2.354 2.446 0 0 1.648-.355 2.982-.789 1.647-.355 2.588-.986 3.098-1.301zM244.381 103.745l-.118.039-.118.04-.157.039-.117.04-.157.039-.157.04-.157.039-.157.04-.157.039-.157.039-.353.079-.353.119-.353.079-.353.078-.353.079-.353.079-.157.04-.157.039-.157.04-.156.039-.157.04-.118.039-.157.039-.118.04-.117.039-.079-.079c-1.137.355-1.922.908-2.981 2.052 0 0 1.608.433 2.511.749 0 0 1.412-.947 2.902-1.538.981-.355 1.452-1.42 2.511-2.446zM241.908 111.631l.039-.039.039-.04.039-.078.04-.04.039-.039.039-.04.039-.039.04-.04v-.039l.039-.04v-.079l.039-.039V111l.039-.039V110.724l-.039-.039v-.04l-.039-.079v-.039l-.039-.079c-.157-.473-1.138-1.026-1.726-1.302-.942-.473-3.609-1.183-4.472-1.459 0 0-.432.513-.667 1.065-.118.236.039.434.392.473.746.158 2.511-.197 2.981.118.471.316.314.71.314 1.105 0 0 .824-.513 1.334-.355.706.039 1.137.394 1.53 1.538zM239.553 107.965h.039l.039.039h.039l.04.04h.039l.039.039.039.039h.04l.039.04.078.039.039.04.079.039.078.04.079.039.078.04.079.039.078.04.079.039.078.039.079.04.078.039.118.04.117.039.079.04.078.039.118.039.078.04.079.039.117.079.118.04.118.039s.431-.158.667-.591c.235-.395 1.137-1.736 1.961-1.933 0 0-.706-.04-1.138-.197 0 0-.823.236-1.49.512-.628.118-1.412.513-2.275 1.105zM246.379 106.228l-.079.04-.039.039h-.079l-.039.04h-.078l-.039.039h.078l-.039.04h-.079l-.039.039h-.078l-.04.04H245.712l-.039.039h-.118l-.039.04h-.196s-2.315 1.617-2.589 3.234c-.236 1.42.47 2.09.823 2.248.353.197 2.001.829 3.06-1.341 0 0-1.804.592-2.314-.276-.471-.907.313-2.169.823-2.524.667-.474 1.805-.829 2.511-.671 0-.118-.589-.671-1.255-1.026z"/>
      <path fill="#0837B8" d="M231.118 124.847l.079-.434.118-.434.117-.473.039-.237.118-.197.079-.237.078-.237.079-.236.078-.237.118-.237.078-.237.118-.236.117-.237c1.06-2.248 3.648-8.244 9.062-9.27.47-.118-.589-1.38-1.099-1.301-.51.039-1.451.71-1.883.946 0 0 0-1.301-.039-1.499 0-.236-.196-.315-.431-.315-.196.039-1.53 0-1.922.473-1.256 1.42-3.295 5.286-4.472 8.126-1.177 2.88-2.001 3.747-3.256 3.313-1.216-.433-1.961-1.853-4.158-1.419-.745.157-1.569.67-2.236 1.419.197.356.432.789 1.413.789 1.019 0 2.981.435 4.001 1.145 1.098.867 2.235 1.143 3.804 1.262zM252.653 106.304l.039.158.04.158.039.158.039.157.039.158.079.158.039.158.078.157.079.158.078.158.079.158.117.158.079.157.118.158.078.158.118.158s-1.609 7.613-7.571 8.204c0 0 .118-1.578 1.883-2.761 1.765-1.223 4.393-3.077 4.197-5.917 0 0-.471.079-1.334 1.144-.823 1.065-2.706 4.142-5.53 4.182 0 0 .431-1.46 1.686-2.288 1.256-.829 2.864-1.894 3.609-3.195.628-1.026 1.412-1.618 1.922-1.894zM249.83 134.075l3.609 5.088 2.746-4.891-.981-1.775c-.706 1.302-1.49 2.682-1.922 3.471a150.432 150.432 0 00-2.432-3.471l-1.02 1.578z"/>
      <path fill="#0837B8" d="M248.926 129.777l-.667-.946-.706-.947-.667-.986-.706-.947-.667-.986-.667-.907-.313-.473-.314-.434-.314-.434-.314-.434-.274-.395-.275-.394-.275-.394-.274-.395-.236-.315-.274-.355-.196-.316-.196-.276-.197-.237-.196-.276-.117-.197-.118-.197-.157-.158-.078-.158-.079-.079-.039-.079 1.373-.986-4.315-1.657.078 4.694 1.452-1.065 8.669 12.307 1.059-1.578zM219.196 101.927l.118-.118.117-.118.079-.079.117-.079.118-.039.118-.04.118-.039.117-.04.118-.039h.157l.117.039h.157l.157.04.157.039.157.04.157.039.157.079.157.079.157.079.157.079.156.078.157.119.157.118.157.118.157.119.157.118.157.158.157.118.157.158.157.158.235.158.157.157c1.804 1.657 2.981 3.393 1.922 4.576-.981 1.065-2.903.158-4.668-1.538-1.844-1.657-2.981-3.393-1.922-4.537z"/>
      <path fill="#0837B8" d="M222.137 122.637l-.039-.04-.039-.039v-.04h-.04v-.039h-.039v-.04c-.941-.867-1.53-2.169-1.53-3.589 0-2.761 2.236-5.01 4.943-5.01 2.746 0 4.982 2.249 4.982 5.01 0 .355-.079.947-.079.947.235-.434 1.059-2.328 1.216-2.683a6.335 6.335 0 00-6.119-4.654c-2.511 0-4.629 1.459-5.688 3.589.392-2.524 1.647-4.773 2.51-5.64 1.06-1.026 2.864-1.342 2.864-1.342-1.216.158-2.707-.552-4.472-2.13-1.647-1.538-2.471-2.879-2.55-3.984.118 1.578.079 2.446-.353 3.748-.627 1.735-2.235 4.93-1.647 8.559.314 2.012 1.726 4.97 4.158 7.377.51.552.706 1.341.745 1.775 0 0 3.531 0 4.394.079 0 0 .823-.079.784-.632 0-.512-.471-.631-.863-.631-.431.079-2.197.119-3.138-.591zM241.712 123.861l-.432.158-.431.157-.432.119-.431.118-.432.118-.431.119-.432.079-.431.118-.432.118-.431.079-.431.079-.432.079-.824.158-.823.118c-1.373.237-2.746.276-4.08.237.039.236.039.513-.118.71 0 0 .236.315.236.67 1.333.04 2.746-.039 4.158-.276 2.353-.355 4.824-.828 7.296-1.775l-.667-1.183zM245.439 123.662l.549-.315.549-.356.549-.355.55-.394.549-.434.549-.434.549-.473.549-.513.549-.513.51-.552.55-.552.51-.631.549-.671.51-.671.51-.71.274-.355.236-.394.47-.789c-.706.316-1.647.119-1.647.119a1.847 1.847 0 01-.236.354c-2.432 3.669-5.177 6.036-8.002 7.535l.824 1.104zM225.509 124.965H225.274l-.078-.04H224.411l-.157.04h-.235l-.157.039h-.196l-.157.04h-.196l-.118.039h-.039l-.079.039h-.078c-.863.119-1.844.316-2.001.789-.078.474.236.947.667 1.657.275.434.942.197 1.255.039.353-.157 2.432-1.222 2.746-1.617.353-.394.471-.907-.157-1.025zM227.629 126.345l-.04-.04h-.039l-.039-.039h-.039l-.04-.04-.039-.039-.039-.039h-.118l-.039-.04h-.078l-.04-.039h-.078l-.039-.04h-.353l-.039.04h-.079l-.039.039h-.039l-.04.04h-.078c-.549.236-2.589 1.42-2.707 1.972-.117.552.157.868.471.986.314.118.706.237.981.276.51.04.98-.276 1.255-.592.235-.315 1.177-1.459 1.334-1.735.117-.197.196-.592 0-.71zM227.863 127.57l-.039.079-.039.04-.04.039-.078.04-.039.039-.04.039-.039.04-.039.039-.039.079-.04.04-.039.039-.078.118-.079.119-.039.039-.039.079-.039.04-.04.039-.039.039-.039.04-.039.039-.039.04-.04.039-.039.04-.039.039-.039.039-.04.04v.039h-.039v.04l-.039.039c-.118.158.039.434.314.355.274-.039 1.647-.158 2.471-.71.785-.552 1.334-1.578.785-1.972-.589-.316-1.413-.118-2.354.907zM228.295 124.53h-.039l-.039-.04h-.079l-.039-.039h-.078l-.039-.04h-.118l-.079-.039h-.039l-.039-.04h-.196l-.039-.039h-.353l-.04.039h-.039l-.039.04h-.079v.039h-.039l-.039.04-.039.039v.04h-.039v.039c-.314.434-.118.907.745 1.302.824.394 2.314.71 2.628.315.275-.473-.118-1.183-1.844-1.656zM262.851 96.13l-.039.08-.039.118-.039.079-.04.079-.039.118-.039.118-.039.119-.04.079-.078.197-.078.197-.079.237-.118.197-.117.237-.039.079-.04.118-.039.079-.039.118-.039.118-.04.08-.039.118-.039.079-.039.079-.039.039-.04.079-.039.04-.039.078v.04c-.157.907.078 1.972 1.687 3.116 0 0 1.059-.75 1.451-1.696.392-.908.157-1.539-.235-1.973-.314-.67-1.216-1.735-1.609-2.445zM259.439 99.403l.04.04v.315l.039.118v.118l.039.119.039.118v.118l.04.158.039.158.039.158.039.157.039.158.04.158.078.316.079.315.078.355.039.158.04.158.039.157.039.158.078.158.04.158.039.158.078.118.079.118.039.119c1.02 1.735 2.471 3.077 3.766 3.077 1.177 0 1.451-.711 2-1.026 0 0-.313-1.538-1.647-1.933-1.687-.592-4.197-2.564-5.257-4.457zM263.754 102.636l.078-.039.04-.039.117-.079.039-.04.04-.039.039-.04.039-.039.039-.04.04-.039.039-.04.039-.039.039-.039.04-.04.039-.039.039-.04.039-.039.039-.04.04-.039.039-.039.039-.04.039-.039s1.256.473 2.315 1.183c1.019.71 2.039 1.933 2.628 2.524 0 0-1.569.395-2.589-.039 0 0-.353-1.499-1.491-2.169-.274-.04-1.059-.277-1.804-.632zM265.088 101.338l.039-.079.039-.04.04-.039.039-.04.039-.039.039-.04.039-.039.04-.04.039-.039.039-.079.039-.039.04-.04.039-.079.039-.078.039-.04.04-.079.039-.079.039-.079.039-.079.039-.078.04-.079v-.119l.039-.078v-.08l.039-.118v-.197l.039-.118v-.119l-.039-.118v-.118s2.197 1.42 2.864 1.932c.627.553 2.039 1.973 2.314 2.446 0 0-1.648-.355-2.942-.789-1.648-.355-2.628-.986-3.138-1.301zM268.814 103.745l.118.039.118.04.117.039.157.04.157.039.157.04.157.039.157.04.157.039.157.039.353.079.353.119.353.079.353.078.353.079.353.079.157.04.157.039.157.04.157.039.157.04.156.039.118.039.118.04.117.039.118.04c1.098.355 1.922.907 2.981 2.051 0 0-1.647.434-2.51.749 0 0-1.412-.946-2.942-1.538-1.02-.473-1.491-1.538-2.511-2.564zM271.287 111.631l-.039-.039-.039-.04-.04-.078-.039-.04-.039-.039-.039-.04-.039-.039-.04-.04v-.039l-.039-.04v-.039h-.039v-.04l-.039-.039V111l-.04-.039V110.724l.04-.039v-.04l.039-.079.039-.039v-.079c.196-.473 1.138-1.026 1.726-1.302.981-.473 3.648-1.183 4.472-1.459 0 0 .431.513.667 1.065.078.236-.04.434-.432.473-.745.158-2.51-.197-2.942.118-.471.316-.314.71-.314 1.105 0 0-.823-.513-1.333-.355-.667.039-1.099.394-1.491 1.538zM273.642 107.965h-.039l-.04.039h-.039l-.039.04h-.039l-.04.039-.039.039h-.039l-.079.04-.039.039-.078.04-.039.039-.079.04-.078.039-.079.04-.117.039-.079.04-.078.039-.118.039-.079.04-.117.039-.079.04-.078.039-.118.04-.078.039-.079.039-.078.04-.118.039-.117.079-.118.04-.118.039s-.431-.158-.667-.591c-.235-.395-1.137-1.736-1.922-1.933 0 0 .706-.04 1.099-.197 0 0 .863.236 1.451.512.745.118 1.491.513 2.393 1.105zM266.813 106.228l.039.04h.04l.039.039h.039l.039.04h.079l.039.039h.078l.04.04h.078l.039.039h.079l.039.04h.118l.039.039h.118l.039.04h.157s2.353 1.617 2.628 3.234c.235 1.42-.51 2.09-.863 2.248-.353.197-1.961.829-3.06-1.341 0 0 1.805.592 2.315-.276.51-.907-.314-2.169-.824-2.524-.628-.474-1.805-.829-2.511-.671-.078-.118.471-.671 1.177-1.026z"/>
      <path fill="#0837B8" d="M282.075 124.847l-.118-.434-.118-.434-.117-.473-.079-.237-.078-.236-.039-.237-.079-.237-.078-.236-.118-.237-.079-.237-.117-.236-.118-.237-.118-.237c-1.019-2.248-3.608-8.244-9.022-9.269-.51-.119.55-1.381 1.06-1.302.47.039 1.451.71 1.882.947v-1.499c.04-.237.236-.316.432-.316.235.04 1.53 0 1.922.473 1.216 1.42 3.295 5.286 4.472 8.126 1.216 2.88 2 3.748 3.256 3.314 1.216-.434 1.961-1.854 4.157-1.42.746.157 1.609.67 2.236 1.42-.157.355-.392.788-1.412.788s-2.942.435-4.001 1.145c-1.059.907-2.157 1.183-3.726 1.301zM260.579 106.304l-.039.158-.04.158-.039.158-.039.157-.039.158-.04.158-.078.158-.078.157-.04.158-.117.158-.079.158-.078.158-.118.157-.078.158-.197.355s1.648 7.613 7.61 8.205c0 0-.117-1.578-1.882-2.761-1.766-1.223-4.394-3.077-4.198-5.917 0 0 .432.079 1.295 1.144.824 1.065 2.706 4.142 5.57 4.181 0 0-.432-1.46-1.687-2.288-1.294-.828-2.863-1.893-3.609-3.195-.745-1.065-1.529-1.657-2-1.933zM256.616 113.718l.04.118.039.119.039.118.078.118.079.158.118.158.078.158.118.157.117.158.079.158.118.158.117.197.118.197.157.198.274.354.275.395.275.355.156.197.157.158.118.158.157.158.118.157.117.158.118.158.118.158.117.118.118.118.118.119.078.079c.942.907 3.374 3.313 4.668 4.536 0 0-3.648-.907-5.727-2.801 0 0-1.451.829-2.51.829h-.079c-1.059 0-2.51-.829-2.51-.829-2.04 1.894-5.688 2.801-5.688 2.801 1.294-1.223 3.687-3.629 4.668-4.536.941-.789 3.216-4.024 3.569-5.01z"/>
      <path fill="#0837B8" d="M256.616 122.16h.157l.078-.039h.236l.157-.04.157-.039.117-.04.157-.039.118-.04.157-.039.118-.039.117-.04.118-.039.039-.04.039-.039.04-.04.039-.039.039-.039h.039l.039-.04.04-.039c-.432.907-1.256 2.327-2.001 2.918h-.039c-.785-.552-1.608-2.011-2.04-2.918.432.197 1.216.512 2.001.512h.078v.158z"/>
      <path fill="#0837B8" d="M259.714 139.166l14.278-20.118 1.452 1.065.078-4.694-4.315 1.657 1.334.986c-.706 1.026-11.336 16.015-12.709 17.908l-6.433-11.794-.824 1.223-5.727 8.757-1.452-.947v4.616l4.355-1.736-1.452-1.026c.824-1.183 3.884-5.917 4.943-7.494l6.472 11.597z"/>
      <path fill="#0837B8" d="M262.344 131.275l-.353-.552-.196-.276-.157-.276-.157-.237-.157-.276-.157-.237-.156-.237-.157-.236-.157-.237-.079-.118-.078-.119-.039-.118-.079-.079-.078-.118-.04-.079-.078-.079-.039-.079-.039-.118-.079-.079-.039-.079-.039-.079c-.353.671-1.099 2.012-1.883 3.432l-1.02-1.815 2.785-5.049.785 1.223 2.863 4.339-1.177 1.578zM265.285 132.578l1.02 1.578 1.451-.946.039 4.615-4.354-1.736 1.452-1.025c-.157-.237-.353-.553-.667-1.026l1.059-1.46zM293.999 101.927l-.118-.118-.117-.118-.118-.079-.118-.079-.117-.039-.118-.04-.118-.039-.117-.04-.118-.039h-.157l-.118.039h-.156l-.157.04-.157.039-.157.04-.157.039-.157.079-.157.079-.157.079-.157.079-.157.078-.156.119-.157.118-.157.118-.157.119-.157.118-.157.158-.157.118-.157.158-.157.158-.235.158-.157.157c-1.843 1.657-2.981 3.393-1.883 4.576.981 1.065 2.864.158 4.668-1.538 1.844-1.657 2.981-3.393 1.922-4.537z"/>
      <path fill="#0837B8" d="M291.017 122.636l.04-.039v-.04h.039v-.039h.039v-.04h.039l.04-.039h.039v-.04h.039c.941-.867 1.491-2.169 1.491-3.589 0-2.761-2.197-5.01-4.982-5.01-2.707 0-4.943 2.249-4.943 5.01 0 .355.079.947.079.947-.196-.434-1.02-2.328-1.216-2.683.745-2.682 3.177-4.654 6.08-4.654 2.51 0 4.668 1.459 5.727 3.589-.392-2.524-1.648-4.773-2.511-5.64-1.059-1.026-2.824-1.342-2.824-1.342 1.177.158 2.707-.552 4.472-2.13 1.647-1.538 2.51-2.879 2.55-3.984-.118 1.578-.04 2.446.392 3.748.628 1.735 2.236 4.93 1.647 8.56-.313 2.011-1.765 4.97-4.158 7.376-.51.552-.706 1.341-.745 1.775 0 0-3.57 0-4.354.079 0 0-.863-.079-.824-.631 0-.513.51-.632.902-.632.275.119 2.04.158 2.942-.552zM267.757 123.662l-.549-.315-.589-.356-.549-.355-.549-.394-.549-.434-.55-.434-.549-.473-.549-.513-.549-.513-.549-.552-.549-.552-.51-.631-.51-.671-.51-.671-.51-.71-.235-.355-.275-.394-.471-.789c.746.316 1.648.119 1.648.119.078.078.157.275.235.354 2.511 3.669 5.256 6.036 8.041 7.535l-.823 1.104zM271.481 123.861l.432.158.431.157.432.119.431.118.432.118.431.119.432.079.431.118.432.118.431.079.432.079.431.079.824.158.824.118c1.412.237 2.785.276 4.079.237 0 .236 0 .513.118.71 0 0-.235.315-.235.67a21.386 21.386 0 01-4.158-.276c-2.354-.355-4.825-.828-7.336-1.775l.706-1.183zM287.642 124.965h.235l.078-.04h.824l.196.04h.157l.196.039h.157l.196.04h.196l.079.039h.078l.079.039h.078c.863.119 1.844.316 1.962.789.117.474-.236.947-.667 1.657-.275.434-.903.197-1.256.039-.353-.157-2.392-1.222-2.745-1.617-.314-.394-.432-.907.157-1.025zM285.604 126.344l.039-.039h.039l.039-.04h.04l.039-.039.039-.04h.039l.04-.039h.039l.039-.04h.039l.039-.039h.079l.039-.04h.079l.039-.039H286.545l.039.039h.04l.039.04h.039l.039.039h.04c.549.237 2.588 1.42 2.706 1.973.118.552-.157.867-.431.986-.353.118-.706.236-1.02.276-.51.039-.981-.276-1.216-.592-.275-.315-1.216-1.459-1.334-1.735-.039-.158-.118-.553.118-.671zM285.328 127.57l.078.079.039.04.04.039.039.04.039.039.039.039.04.04.039.039.039.079.039.04.039.039.118.118.118.119.117.118.04.04.039.039.039.039.039.04.04.039.039.04.039.039.039.04.04.039.039.039.039.04.039.039v.04l.039.039c.079.158-.078.434-.313.355-.275-.039-1.648-.158-2.432-.71-.824-.552-1.334-1.578-.785-1.972.432-.316 1.295-.118 2.197.907zM284.9 124.53h.079l.039-.04h.079l.039-.039h.039l.039-.04h.079l.078-.039h.039l.079-.04h.157l.039-.039h.314l.039.039h.039l.039.04h.04l.039.039h.078v.04h.04l.039.039.039.04.039.039c.275.434.079.907-.745 1.302-.824.394-2.354.71-2.667.315-.275-.473.157-1.183 1.882-1.656z"/>
    </g>
    <defs>
      <clipPath id="clip0_3031_12886">
        <path fill="#fff" d="M0 0h339v165H0z"/>
      </clipPath>
    </defs>
  </sympol>
  <symbol viewBox="0 0 610 165" xmlns="http://www.w3.org/2000/svg" fill="none" id="icon-logo-cdek">
    <g fill="currentColor" fill-rule="evenodd" clip-rule="evenodd">
      <path d="M411.793 165h43.331l18.623-51.904 19.361-15.905 15.253 46.934C513.073 158.628 517.928 165 528.52 165h33.18l-34.225-92.1L609.784 0h-53.155L506.65 51.904C500.832 57.94 494.941 63.896 489.041 71h-.502l24.954-71h-43.341l-58.359 165zM409.93.01c13.594 0 26.767 0 37.81.01l-8.943 27.238c-2.807 8.557-9.946 12.653-25.671 12.653-27.309 0-67.711 0-95.02-.01l8.942-27.238C329.855 4.096 336.985 0 352.719 0c16.267 0 37.185 0 57.211.01zm-79.266 62.535c27.31 0 67.711 0 95.021.01l-8.943 27.237c-2.806 8.558-9.946 12.653-25.67 12.653-27.31 0-67.711 0-95.021-.01l8.943-27.237c2.806-8.558 9.936-12.653 25.67-12.653zm71.881 62.554c-27.31 0-67.711-.01-95.021-.01-15.735 0-22.864 4.096-25.671 12.653l-8.943 27.248c27.31 0 67.711.01 95.021.01 15.724 0 22.864-4.096 25.671-12.653l8.943-27.248zM215.309 39.738l23.253.01c19.812 0 15.294 23.772 5.266 46.924-8.841 20.418-24.493 38.427-43.178 38.427h-38.772c-15.468 0-22.598 4.096-25.599 12.653L126.711 165h28.426l27.792-.224c24.646-.193 44.826-1.91 68.417-22.267 24.934-21.506 54.005-77.393 49.027-109.712C296.47 7.47 282.303.01 247.976.01L185.438 0l-36.416 102.334 23.14.03c13.768.01 20.682.183 28.007-18.741l15.14-43.885zM108.394 39.88H90.897C55.854 39.9 25.83 125.11 67.265 125.1H93.89c15.355 0 26.746 5.387 21.706 19.9l-6.955 19.991H80.408l-22.967-.224c-29.379-.284-48.34-14.188-55.162-35.307-7.386-22.847 3.042-70.512 33.313-101.043C53.16 10.702 77.488 0 108.68 0h57.62l-9.004 24.971c-5.818 16.14-17.711 14.93-24.493 14.93l-24.41-.02z"/>
    </g>
  </symbol>

</svg>
